<svg width="24" height="24" viewBox="0 0 24 24" fill="none" xmlns="http://www.w3.org/2000/svg">
<g clip-path="url(#clip0_608_13)">
<path d="M19.8478 7.84803C18.8558 7.84803 17.9458 8.19603 17.2318 8.77603C16.4928 8.17444 15.5687 7.84662 14.6158 7.84803C13.6238 7.84803 12.7138 8.19603 11.9998 8.77603C11.2608 8.17444 10.3367 7.84662 9.38379 7.84803C8.39179 7.84803 7.48179 8.19603 6.76779 8.77603C6.15859 8.28166 5.42178 7.97001 4.64273 7.87719C3.86368 7.78437 3.07428 7.91417 2.36597 8.25157C1.65767 8.58896 1.05945 9.12013 0.640624 9.78355C0.2218 10.447 -0.000488281 11.2155 -0.000488281 12C-0.000488281 12.7846 0.2218 13.5531 0.640624 14.2165C1.05945 14.8799 1.65767 15.4111 2.36597 15.7485C3.07428 16.0859 3.86368 16.2157 4.64273 16.1229C5.42178 16.03 6.15859 15.7184 6.76779 15.224C7.48179 15.804 8.39179 16.152 9.38379 16.152C10.3758 16.152 11.2858 15.804 11.9998 15.224C12.7138 15.804 13.6238 16.152 14.6158 16.152C15.6078 16.152 16.5178 15.804 17.2318 15.224C17.7479 15.6428 18.3569 15.9316 19.0078 16.0661C19.6586 16.2006 20.3323 16.1769 20.9721 15.997C21.6118 15.8171 22.1991 15.4862 22.6845 15.0322C23.1698 14.5782 23.5391 14.0143 23.7612 13.3879C23.9834 12.7615 24.0519 12.0909 23.9611 11.4326C23.8703 10.7742 23.6227 10.1473 23.2393 9.60443C22.8558 9.0616 22.3476 8.61876 21.7575 8.31312C21.1673 8.00748 20.5124 7.84798 19.8478 7.84803V7.84803ZM17.2318 13.866C16.8421 13.3219 16.633 12.6693 16.6338 12C16.6338 11.304 16.8558 10.66 17.2318 10.134C17.6078 10.66 17.8298 11.304 17.8298 12C17.8298 12.696 17.6078 13.34 17.2318 13.866ZM11.9998 13.866C11.6101 13.3219 11.401 12.6693 11.4018 12C11.4018 11.304 11.6238 10.66 11.9998 10.134C12.3758 10.66 12.5978 11.304 12.5978 12C12.5978 12.696 12.3758 13.34 11.9998 13.866ZM6.76779 13.866C6.37812 13.3219 6.16897 12.6693 6.16979 12C6.16979 11.304 6.39179 10.66 6.76779 10.134C7.14379 10.66 7.36579 11.304 7.36579 12C7.36579 12.696 7.14379 13.34 6.76779 13.866ZM0.937793 12C0.938029 11.4003 1.10605 10.8126 1.42287 10.3034C1.73968 9.79422 2.19264 9.38382 2.73053 9.11862C3.26842 8.85342 3.86978 8.74401 4.46661 8.80275C5.06344 8.86149 5.63193 9.08605 6.10779 9.45103C5.53923 10.179 5.23083 11.0764 5.23179 12C5.23179 12.961 5.55979 13.846 6.10779 14.549C5.63193 14.914 5.06344 15.1386 4.46661 15.1973C3.86978 15.256 3.26842 15.1466 2.73053 14.8814C2.19264 14.6162 1.73968 14.2058 1.42287 13.6966C1.10605 13.1874 0.938029 12.5997 0.937793 12V12ZM7.42779 14.549C7.99636 13.8211 8.30476 12.9237 8.30379 12C8.30379 11.039 7.97579 10.154 7.42779 9.45103C7.98845 9.0194 8.67624 8.78557 9.38379 8.78603C10.1198 8.78603 10.7978 9.03403 11.3398 9.45103C10.771 10.1788 10.4625 11.0763 10.4638 12C10.4638 12.961 10.7918 13.846 11.3398 14.549C10.7791 14.9807 10.0913 15.2145 9.38379 15.214C8.67615 15.215 7.98819 14.9811 7.42779 14.549V14.549ZM12.6598 14.549C13.2286 13.8212 13.5371 12.9237 13.5358 12C13.5358 11.039 13.2078 10.154 12.6598 9.45003C13.2018 9.03403 13.8798 8.78503 14.6158 8.78503C15.3518 8.78503 16.0298 9.03303 16.5718 9.45003C16.003 10.1778 15.6945 11.0753 15.6958 11.999C15.6958 12.96 16.0238 13.845 16.5718 14.548C16.0111 14.9797 15.3233 15.2135 14.6158 15.213C13.9082 15.2148 13.2201 14.9812 12.6598 14.549V14.549ZM19.8478 15.214C19.1402 15.215 18.4522 14.9811 17.8918 14.549C18.4602 13.821 18.7686 12.9237 18.7678 12C18.7678 11.039 18.4398 10.154 17.8918 9.45103C18.297 9.13985 18.7705 8.92974 19.2731 8.83812C19.7757 8.74651 20.2929 8.77603 20.7818 8.92424C21.2707 9.07245 21.7173 9.33507 22.0844 9.69034C22.4516 10.0456 22.7287 10.4833 22.8929 10.9671C23.0571 11.4508 23.1036 11.9668 23.0286 12.4721C22.9535 12.9775 22.7591 13.4576 22.4614 13.8728C22.1637 14.288 21.7713 14.6263 21.3168 14.8595C20.8623 15.0928 20.3587 15.2143 19.8478 15.214V15.214Z" fill="white"/>
</g>
<defs>
<clipPath id="clip0_608_13">
<rect width="24" height="24" fill="white"/>
</clipPath>
</defs>
</svg>
