<svg width="24" height="24" viewBox="0 0 24 24" fill="none" xmlns="http://www.w3.org/2000/svg">
<path d="M12 8.236C5.872 8.236 0.905 9.93 0.905 12.002C0.905 14.074 5.872 15.767 12 15.767C18.127 15.767 23.094 14.074 23.094 12.002C23.094 9.929 18.127 8.236 12 8.236V8.236ZM6.302 14.476C5.646 14.481 5.069 14.076 5.002 13.375C4.96392 13.0097 5.06935 12.644 5.296 12.355C5.491 12.101 5.821 11.89 6.1 11.838C6.19 11.821 6.313 11.832 6.364 11.892C6.443 11.985 6.42 12.086 6.341 12.126C6.128 12.235 5.871 12.421 5.744 12.676C5.68583 12.7841 5.65825 12.9061 5.66424 13.0287C5.67023 13.1514 5.70956 13.2701 5.778 13.372C6.041 13.769 6.775 13.78 7.457 13.147C7.626 12.991 7.777 12.843 7.93 12.667C8.23 12.323 8.33 12.197 8.73 11.643C8.735 11.637 8.736 11.629 8.734 11.625C8.731 11.618 8.725 11.615 8.714 11.615C8.447 11.622 8.214 11.702 7.989 11.87C7.924 11.918 7.83 11.911 7.789 11.849C7.743 11.779 7.776 11.686 7.851 11.634C8.214 11.381 8.611 11.336 9.017 11.267C9.017 11.267 9.045 11.269 9.068 11.237C9.235 11.024 9.36 10.832 9.538 10.616C9.716 10.396 9.948 10.196 10.124 10.044C10.37 9.832 10.528 9.761 10.688 9.674C10.731 9.652 10.683 9.625 10.67 9.625C9.774 9.457 8.843 9.239 7.953 9.569C7.337 9.799 7.066 10.287 7.196 10.614C7.289 10.845 7.593 10.884 7.879 10.744C8.12771 10.6207 8.33873 10.4328 8.49 10.2C8.577 10.066 8.76 10.162 8.661 10.395C8.401 11.006 7.904 11.492 7.298 11.513C6.782 11.529 6.449 11.15 6.45 10.682C6.452 9.758 7.48 9.15 8.56 9.06C9.861 8.952 11.093 9.299 12.385 9.455C13.374 9.575 14.323 9.578 15.317 9.349C15.435 9.324 15.517 9.399 15.51 9.517C15.5 9.689 15.367 9.854 15.04 10.033C14.667 10.237 14.277 10.299 13.87 10.303C12.886 10.311 11.969 9.927 11.02 9.721C11.022 9.762 11.032 9.812 10.997 9.838C10.472 10.226 9.997 10.62 9.679 11.172C9.668 11.185 9.674 11.197 9.692 11.196C9.969 11.181 10.217 11.174 10.475 11.154C10.52 11.15 10.522 11.139 10.518 11.106C10.5039 11.0038 10.5147 10.8996 10.5495 10.8025C10.5843 10.7053 10.6421 10.618 10.718 10.548C10.89 10.395 11.105 10.378 11.248 10.488C11.408 10.614 11.395 10.841 11.306 11.011C11.2664 11.0857 11.2121 11.1516 11.1465 11.2048C11.0809 11.2581 11.0052 11.2976 10.924 11.321C10.924 11.321 10.894 11.327 10.898 11.355C10.904 11.398 11.098 11.506 11.115 11.535C11.132 11.562 11.123 11.605 11.094 11.637C11.0825 11.6511 11.068 11.6624 11.0515 11.6702C11.0351 11.6779 11.0172 11.682 10.999 11.682C10.966 11.682 10.946 11.67 10.903 11.647C10.8001 11.5924 10.7084 11.5188 10.633 11.43C10.609 11.399 10.596 11.398 10.534 11.401C10.255 11.418 9.82 11.46 9.525 11.497C9.454 11.505 9.443 11.519 9.429 11.544C8.959 12.319 8.457 13.154 7.906 13.714C7.314 14.314 6.823 14.472 6.302 14.476V14.476ZM19.05 10.71C18.959 10.868 17.201 13.544 17.09 13.82C17.055 13.908 17.05 13.975 17.086 14.024C17.178 14.148 17.383 14.075 17.511 13.986C17.892 13.724 18.156 13.406 18.448 13.128C18.465 13.115 18.494 13.11 18.513 13.128C18.556 13.168 18.619 13.219 18.663 13.265C18.6669 13.2686 18.6701 13.2729 18.6723 13.2777C18.6745 13.2826 18.6758 13.2878 18.6759 13.2931C18.6761 13.2984 18.6753 13.3037 18.6734 13.3086C18.6715 13.3136 18.6687 13.3181 18.665 13.322C18.3979 13.6578 18.0947 13.9633 17.761 14.233C17.291 14.597 16.822 14.69 16.589 14.457C16.5068 14.3713 16.4573 14.2595 16.449 14.141C16.447 14.084 16.418 14.081 16.391 14.107C16.113 14.382 15.631 14.686 15.193 14.469C14.827 14.289 14.742 13.851 14.81 13.483C14.811 13.475 14.804 13.423 14.759 13.453C14.6667 13.5201 14.5658 13.5746 14.459 13.615C14.3442 13.6674 14.2192 13.6937 14.093 13.692C14.0023 13.693 13.9128 13.6702 13.8337 13.6258C13.7545 13.5814 13.6884 13.517 13.642 13.439C13.583 13.3326 13.5504 13.2136 13.547 13.092C13.546 13.081 13.53 13.06 13.514 13.087C13.214 13.544 12.935 13.986 12.639 14.45C12.623 14.472 12.609 14.486 12.579 14.487L11.992 14.488C11.956 14.488 11.939 14.46 11.958 14.425C12.062 14.225 12.632 13.395 13.018 12.689C13.125 12.495 13.103 12.395 13.037 12.352C12.954 12.298 12.789 12.379 12.65 12.485C12.271 12.772 11.953 13.22 11.791 13.42C11.696 13.537 11.606 13.711 11.358 13.98C10.967 14.405 10.448 14.649 9.95 14.48C9.81845 14.4354 9.69986 14.3592 9.60466 14.2581C9.50946 14.157 9.44055 14.034 9.404 13.9C9.389 13.848 9.36 13.834 9.331 13.868C9.251 13.968 9.086 14.117 8.948 14.21C8.933 14.221 8.896 14.243 8.864 14.227C8.8038 14.1685 8.75258 14.1015 8.712 14.028C8.70597 14.0147 8.70427 13.9998 8.70714 13.9854C8.71001 13.9711 8.71731 13.958 8.728 13.948C8.925 13.775 9.033 13.677 9.119 13.568C9.183 13.488 9.232 13.398 9.289 13.253C9.409 12.951 9.682 12.387 10.227 12.095C10.4283 11.981 10.6497 11.9067 10.879 11.876C10.979 11.866 11.062 11.878 11.092 11.956C11.103 11.989 11.131 12.061 11.148 12.114C11.159 12.146 11.151 12.171 11.113 12.185C10.793 12.307 10.47 12.496 10.248 12.795C9.995 13.133 9.927 13.541 10.096 13.775C10.219 13.945 10.418 13.975 10.61 13.914C10.9 13.822 11.148 13.551 11.276 13.251C11.414 12.922 11.436 12.534 11.334 12.192C11.318 12.133 11.333 12.088 11.371 12.056C11.448 11.993 11.555 11.944 11.586 11.928C11.6165 11.9117 11.652 11.9072 11.6856 11.9155C11.7193 11.9238 11.7486 11.9443 11.768 11.973C11.874 12.13 11.931 12.351 11.938 12.58C11.944 12.629 11.964 12.63 11.988 12.605C12.178 12.403 12.354 12.187 12.556 12.025C12.741 11.878 12.978 11.758 13.199 11.763C13.485 11.769 13.627 11.963 13.618 12.309C13.617 12.353 13.648 12.349 13.669 12.32C13.7353 12.2204 13.8162 12.1314 13.909 12.056C14.107 11.893 14.309 11.82 14.52 11.834C14.78 11.854 14.988 12.091 14.945 12.361C14.9346 12.4464 14.9036 12.528 14.8547 12.5987C14.8057 12.6695 14.7403 12.7272 14.664 12.767C14.5999 12.8012 14.527 12.8152 14.4547 12.8074C14.3825 12.7995 14.3143 12.7701 14.259 12.723C14.2161 12.6825 14.1847 12.6314 14.1679 12.5749C14.151 12.5183 14.1493 12.4584 14.163 12.401C14.168 12.376 14.136 12.353 14.109 12.381C13.855 12.645 13.836 12.987 14.002 13.141C14.185 13.311 14.46 13.197 14.66 13.066C15.026 12.827 15.31 12.503 15.639 12.253C15.857 12.087 16.106 11.939 16.385 11.902C16.5383 11.8786 16.695 11.8965 16.839 11.954C17.039 12.035 17.165 12.204 17.181 12.35C17.185 12.393 17.217 12.398 17.244 12.36C17.402 12.114 18.249 10.843 18.319 10.71C18.339 10.669 18.363 10.663 18.408 10.663H19.014C19.049 10.663 19.065 10.683 19.05 10.71V10.71ZM16.73 12.914C16.7238 12.9264 16.7227 12.9408 16.727 12.954C16.73 12.974 16.757 12.994 16.783 13.004C16.793 13.007 16.798 13.014 16.787 13.036C16.712 13.196 16.644 13.288 16.55 13.427C16.4669 13.5498 16.3658 13.6594 16.25 13.752C16.072 13.899 15.826 14.059 15.622 13.952C15.532 13.905 15.492 13.778 15.495 13.676C15.499 13.388 15.627 13.092 15.864 12.801C16.152 12.446 16.471 12.262 16.68 12.363C16.896 12.466 16.828 12.717 16.73 12.913V12.914ZM10.781 11.033C10.7735 10.9691 10.7816 10.9043 10.8046 10.8443C10.8275 10.7842 10.8648 10.7306 10.913 10.688C10.97 10.638 11.046 10.626 11.093 10.666C11.145 10.711 11.12 10.823 11.067 10.9C11.0094 10.9867 10.9224 11.0496 10.822 11.077C10.804 11.081 10.788 11.073 10.781 11.033V11.033ZM12 7.5C5.34 7.5 0 9.497 0 12C0 14.488 5.383 16.5 12 16.5C18.617 16.5 24 14.48 24 12C24 9.52 18.617 7.5 12 7.5ZM12 16.108C5.649 16.108 0.5 14.27 0.5 12.002C0.5 9.733 5.65 7.895 12 7.895C18.35 7.895 23.498 9.733 23.498 12.002C23.498 14.27 18.35 16.108 12 16.108V16.108Z" fill="white"/>
</svg>
