<svg width="24" height="24" viewBox="0 0 24 24" fill="none" xmlns="http://www.w3.org/2000/svg">
<g clip-path="url(#clip0_608_7)">
<path d="M23.9019 6.87002C23.5719 3.65202 21.4319 2.97502 19.5479 2.66602C18.6019 2.50602 16.9179 2.36602 15.8319 2.32602C14.8859 2.26602 12.6639 2.23602 11.9969 2.23602C11.3399 2.23602 9.10689 2.26602 8.16189 2.32602C7.08589 2.36602 5.39189 2.50602 4.44589 2.66602C2.56289 2.98502 0.419888 3.66002 0.0918878 6.87002C0.0118878 7.74702 -0.00811224 8.89302 0.00188776 10.118C0.0318878 12.149 0.201888 13.524 0.301888 14.481C0.371888 15.138 0.639888 17.101 0.988888 18.117C1.46689 19.512 1.90489 19.92 2.41289 20.339C3.34989 21.096 4.88389 21.335 5.20289 21.395C6.93589 21.705 10.4429 21.763 11.9869 21.763C13.5309 21.763 17.0369 21.713 18.7709 21.395C19.0999 21.335 20.6339 21.105 21.5609 20.339C22.0689 19.92 22.5069 19.512 22.9849 18.117C23.3349 17.101 23.6129 15.138 23.6829 14.481C23.7829 13.524 23.9619 12.149 23.9819 10.118C24.0219 8.89302 23.9919 7.74702 23.9019 6.87002M22.7259 12.27C22.5359 14.84 22.3079 16.374 21.9789 17.49C21.6889 18.466 21.3419 19.113 20.8139 19.582C19.9469 20.369 18.7509 20.538 18.0539 20.638C16.5399 20.868 13.9989 20.938 11.9969 20.938C9.99489 20.938 7.45389 20.858 5.93989 20.638C5.24289 20.538 4.04689 20.369 3.17989 19.582C2.66189 19.113 2.30389 18.456 2.02489 17.489C1.69589 16.384 1.46689 14.839 1.27789 12.269C1.16789 10.726 1.18789 8.21502 1.35789 6.86902C1.61589 4.85802 2.61289 3.85102 4.74489 3.47302C5.74089 3.29302 7.08489 3.16302 8.35089 3.10302C9.36689 3.03302 11.0509 3.00302 11.9869 3.01302C12.9229 3.00302 14.6069 3.04302 15.6229 3.10302C16.8979 3.16302 18.2329 3.29302 19.2289 3.47302C21.3709 3.85102 22.3679 4.86802 22.6169 6.87002C22.8159 8.21502 22.8459 10.726 22.7269 12.27M17.5249 3.88002C16.9769 6.34202 16.7579 7.46802 16.3089 9.25002C15.8809 10.965 15.5419 12.548 14.9739 13.315C14.3869 14.092 13.6089 14.262 13.0809 14.321C12.8019 14.351 12.6029 14.361 12.0149 14.371C11.6558 14.3778 11.2967 14.3611 10.9399 14.321C10.4119 14.261 9.62489 14.092 9.04789 13.315C8.46989 12.548 8.14089 10.965 7.71289 9.25102C7.24289 7.47802 7.03489 6.34102 6.47689 3.88102C6.47689 3.88102 5.92889 3.90102 5.67989 3.92102C5.35089 3.94102 5.09189 3.97102 4.81289 4.01102C5.15589 9.38302 5.50489 15.09 5.93889 20.141C6.73189 20.2408 7.52974 20.2972 8.32889 20.31C8.65889 19.044 9.07689 17.29 9.53589 16.543C9.91389 15.935 10.5019 15.866 10.8309 15.826C11.3489 15.756 11.7869 15.746 11.9959 15.746C12.1959 15.736 12.6329 15.746 13.1609 15.826C13.4909 15.876 14.0779 15.936 14.4559 16.543C14.9259 17.29 15.3329 19.043 15.6619 20.309C15.6619 20.309 16.0199 20.299 16.8269 20.259C17.2369 20.241 17.6469 20.201 18.0529 20.139C18.5109 14.749 18.8379 9.41102 19.1789 4.01102C18.8989 3.97102 18.6409 3.94102 18.3119 3.92102C18.0819 3.90102 17.5249 3.88102 17.5249 3.88102V3.88002Z" fill="white"/>
</g>
<defs>
<clipPath id="clip0_608_7">
<rect width="24" height="24" fill="white"/>
</clipPath>
</defs>
</svg>
