<svg width="31" height="24" viewBox="0 0 31 24" fill="none" xmlns="http://www.w3.org/2000/svg">
<g clip-path="url(#clip0_605_5)">
<path d="M19.4781 22.099V22.008H13.7501V22.099L13.7511 22.144C13.7511 22.6482 13.5508 23.1317 13.1943 23.4882C12.8378 23.8447 12.3543 24.045 11.8501 24.045C11.346 24.045 10.8624 23.8447 10.5059 23.4882C10.1494 23.1317 9.94913 22.6482 9.94913 22.144L9.95013 22.097V22.008H9.29713C9.01872 22.008 8.74869 21.9128 8.53187 21.7382C8.31504 21.5635 8.16446 21.32 8.10513 21.048L8.10413 21.04L4.28713 2.967L1.02613 2.424C0.71555 2.36126 0.441522 2.18025 0.261937 1.91921C0.0823524 1.65817 0.0112756 1.33754 0.0637232 1.02506C0.116171 0.71258 0.288035 0.432726 0.543007 0.244621C0.797978 0.0565162 1.11609 -0.0251067 1.43013 0.0169967L1.42413 0.0159967L5.50513 0.695997C6.00213 0.780997 6.39213 1.157 6.49613 1.639L6.49713 1.647L7.18913 4.911L19.0941 5.903C19.0206 6.29408 18.9831 6.69107 18.9821 7.089V7.093C18.9821 7.495 19.0171 7.889 19.0851 8.272L19.0791 8.232C18.7515 8.33526 18.4734 8.5556 18.298 8.85094C18.1225 9.14628 18.0621 9.4959 18.1281 9.833L18.1271 9.824L18.8461 15.014C18.8901 15.347 19.0421 15.639 19.2641 15.859C19.4661 16.06 19.7431 16.186 20.0501 16.189H20.0511C20.1191 16.189 20.1861 16.182 20.2501 16.17L20.2431 16.171C20.5841 16.0819 20.8784 15.8665 21.0665 15.5685C21.2546 15.2705 21.3224 14.9121 21.2561 14.566L21.2571 14.575L20.8651 11.753C21.4873 12.4003 22.234 12.9151 23.0602 13.2664C23.8865 13.6176 24.7753 13.7981 25.6731 13.797C25.7161 13.797 25.7591 13.797 25.8011 13.791L25.8941 13.786L25.2251 17.688C25.2091 17.7826 25.1602 17.8685 25.087 17.9305C25.0138 17.9925 24.9211 18.0267 24.8251 18.027H9.96013L10.2871 19.574H24.4441C24.7592 19.5865 25.0571 19.7204 25.2757 19.9476C25.4943 20.1748 25.6165 20.4778 25.6167 20.793C25.617 21.1083 25.4953 21.4115 25.2771 21.639C25.0589 21.8666 24.7611 22.001 24.4461 22.014H23.2801V22.105C23.2801 22.6092 23.0798 23.0927 22.7233 23.4492C22.3668 23.8057 21.8833 24.006 21.3791 24.006C20.875 24.006 20.3914 23.8057 20.0349 23.4492C19.6784 23.0927 19.4781 22.6092 19.4781 22.105V22.099ZM20.8361 22.099C20.8363 22.1736 20.852 22.2474 20.8822 22.3157C20.9125 22.3839 20.9565 22.4451 21.0116 22.4955C21.0667 22.5458 21.1317 22.5841 21.2024 22.6081C21.2731 22.632 21.3479 22.641 21.4223 22.6344C21.4966 22.6279 21.5688 22.606 21.6343 22.5701C21.6997 22.5342 21.757 22.4852 21.8025 22.426C21.8479 22.3668 21.8806 22.2988 21.8985 22.2264C21.9163 22.1539 21.9189 22.0785 21.9061 22.005V22.008H20.8461C20.8408 22.038 20.8381 22.0685 20.8381 22.099H20.8361ZM11.3081 22.099C11.3083 22.1736 11.324 22.2474 11.3542 22.3157C11.3845 22.3839 11.4285 22.4451 11.4836 22.4955C11.5387 22.5458 11.6037 22.5841 11.6744 22.6081C11.7451 22.632 11.8199 22.641 11.8943 22.6344C11.9686 22.6279 12.0408 22.606 12.1063 22.5701C12.1717 22.5342 12.229 22.4852 12.2745 22.426C12.3199 22.3668 12.3526 22.2988 12.3705 22.2264C12.3883 22.1539 12.3909 22.0785 12.3781 22.005V22.008H11.3171C11.3121 22.0374 11.3098 22.0672 11.3101 22.097V22.099H11.3081ZM15.1751 8.224C14.834 8.3129 14.5396 8.52823 14.3514 8.8263C14.1633 9.12437 14.0956 9.48285 14.1621 9.829L14.1611 9.82L14.8801 15.01C14.9241 15.343 15.0761 15.635 15.2981 15.855C15.5001 16.056 15.7771 16.182 16.0841 16.185H16.0851C16.1531 16.185 16.2201 16.178 16.2841 16.166L16.2771 16.167C16.6181 16.0779 16.9124 15.8625 17.1005 15.5645C17.2886 15.2665 17.3564 14.9081 17.2901 14.562L17.2911 14.571L16.5721 9.381C16.5307 9.06068 16.3836 8.76333 16.1541 8.536C15.9453 8.32741 15.6633 8.20864 15.3681 8.205H15.3671C15.2981 8.205 15.2311 8.212 15.1661 8.225L15.1731 8.224H15.1751ZM11.2091 8.224C10.8669 8.31249 10.5714 8.52829 10.3829 8.82734C10.1945 9.12638 10.1273 9.48609 10.1951 9.833L10.1941 9.824L10.9131 15.014C10.9571 15.347 11.1091 15.639 11.3311 15.859C11.5331 16.06 11.8101 16.186 12.1171 16.189H12.1181C12.1861 16.189 12.2531 16.182 12.3171 16.17L12.3101 16.171C12.6514 16.0823 12.9461 15.8671 13.1344 15.569C13.3228 15.2709 13.3906 14.9123 13.3241 14.566L13.3251 14.575L12.6051 9.382C12.5637 9.06168 12.4166 8.76433 12.1871 8.537C11.9785 8.32805 11.6963 8.20922 11.4011 8.206H11.4001C11.3321 8.206 11.2661 8.213 11.2021 8.225L11.2091 8.224ZM19.9981 7.096C19.9984 5.58957 20.5971 4.14494 21.6625 3.07992C22.19 2.55258 22.8162 2.1343 23.5054 1.84898C24.1946 1.56365 24.9332 1.41687 25.6791 1.417C26.425 1.41713 27.1636 1.56418 27.8527 1.84974C28.5418 2.13531 29.1679 2.55381 29.6952 3.08134C30.2225 3.60887 30.6408 4.2351 30.9261 4.92428C31.2115 5.61346 31.3583 6.35209 31.3581 7.098C31.3577 8.60469 30.7588 10.0495 29.6931 11.1146C28.6275 12.1797 27.1823 12.7779 25.6756 12.7775C24.1689 12.7771 22.7241 12.1782 21.659 11.1125C20.5939 10.0468 19.9957 8.60169 19.9961 7.095L19.9981 7.096ZM21.6251 7.096C21.6251 7.62824 21.73 8.15528 21.9336 8.64701C22.1373 9.13875 22.4359 9.58554 22.8122 9.9619C23.1886 10.3383 23.6354 10.6368 24.1271 10.8405C24.6188 11.0442 25.1459 11.149 25.6781 11.149C26.2104 11.149 26.7374 11.0442 27.2291 10.8405C27.7209 10.6368 28.1677 10.3383 28.544 9.9619C28.9204 9.58554 29.2189 9.13875 29.4226 8.64701C29.6263 8.15528 29.7311 7.62824 29.7311 7.096C29.7313 6.02081 29.3043 4.98961 28.5441 4.22924C27.7839 3.46887 26.7528 3.04163 25.6776 3.0415C24.6024 3.04136 23.5712 3.46835 22.8109 4.22853C22.0505 4.98871 21.6233 6.01981 21.6231 7.095L21.6251 7.096ZM24.8651 8.717V7.909H24.0571C23.8412 7.909 23.6342 7.82324 23.4815 7.67058C23.3289 7.51793 23.2431 7.31088 23.2431 7.095C23.2431 6.87911 23.3289 6.67207 23.4815 6.51941C23.6342 6.36676 23.8412 6.281 24.0571 6.281H24.8651V5.473C24.8651 5.25711 24.9509 5.05007 25.1035 4.89741C25.2562 4.74476 25.4632 4.659 25.6791 4.659C25.895 4.659 26.1021 4.74476 26.2547 4.89741C26.4074 5.05007 26.4931 5.25711 26.4931 5.473V6.281H27.3011C27.517 6.281 27.7241 6.36676 27.8767 6.51941C28.0294 6.67207 28.1151 6.87911 28.1151 7.095C28.1151 7.31088 28.0294 7.51793 27.8767 7.67058C27.7241 7.82324 27.517 7.909 27.3011 7.909H26.4931V8.716C26.4931 8.93188 26.4074 9.13893 26.2547 9.29158C26.1021 9.44424 25.895 9.53 25.6791 9.53C25.4632 9.53 25.2562 9.44424 25.1035 9.29158C24.9509 9.13893 24.8651 8.93188 24.8651 8.716V8.717Z" fill="white"/>
</g>
<defs>
<clipPath id="clip0_605_5">
<rect width="31" height="24" fill="white"/>
</clipPath>
</defs>
</svg>
