<svg width="24" height="24" viewBox="0 0 24 24" fill="none" xmlns="http://www.w3.org/2000/svg">
<path d="M12 22.75C17.9371 22.75 22.75 17.9371 22.75 12C22.75 6.06294 17.9371 1.25 12 1.25C6.06294 1.25 1.25 6.06294 1.25 12C1.25 17.9371 6.06294 22.75 12 22.75Z" stroke="white" stroke-linecap="round" stroke-linejoin="round"/>
<path d="M11.9999 12V1.25M11.9999 12L2.68994 17.375M11.9999 12L21.3099 17.375M11.9999 12V13.57M11.9999 12L13.3599 11.215M11.9999 12L10.6399 11.215M10.6399 11.215L11.9999 1.25M13.3599 11.215L11.9999 1.25M21.3099 17.375L13.3599 11.215M11.9999 13.57L21.3099 17.375M2.68994 17.375L11.9999 13.57M10.6399 11.215L2.68994 17.375" stroke="white" stroke-linecap="round" stroke-linejoin="round"/>
</svg>
