<svg width="24" height="24" viewBox="0 0 24 24" fill="none" xmlns="http://www.w3.org/2000/svg">
<g clip-path="url(#clip0_608_2)">
<path d="M11.972 0C11.2904 0.00322139 10.6092 0.0335788 9.92997 0.091C8.49843 0.209472 7.07819 0.438489 5.68197 0.776C4.67001 1.03176 3.67615 1.35447 2.70697 1.742L2.64697 1.764C2.64697 1.764 2.76497 9.007 2.85697 12.595C2.88067 13.6514 3.07275 14.6972 3.42597 15.693C3.83474 16.826 4.37938 17.9052 5.04797 18.907C5.74746 19.9416 6.59364 20.8689 7.55997 21.66C7.93772 21.9768 8.33591 22.2685 8.75197 22.533C9.40451 22.9272 10.0858 23.2719 10.79 23.564C11.023 23.662 11.226 23.756 11.41 23.819C11.6023 23.8925 11.7995 23.953 12 24C12.2005 23.9527 12.3976 23.8919 12.59 23.818C12.772 23.755 12.977 23.662 13.21 23.563C13.9138 23.2708 14.5947 22.9262 15.247 22.532C15.6637 22.2675 16.0626 21.9759 16.441 21.659C17.4069 20.8682 18.2528 19.9412 18.952 18.907C19.6206 17.9052 20.1653 16.826 20.574 15.693C20.9275 14.6972 21.1199 13.6514 21.144 12.595C21.235 9.007 21.354 1.768 21.354 1.768C21.3354 1.7584 21.3164 1.74972 21.297 1.742C20.3275 1.35442 19.3333 1.03171 18.321 0.776C16.9247 0.438818 15.5045 0.210136 14.073 0.092C13.3938 0.0346483 12.7126 0.00395803 12.031 0L11.972 0ZM11.972 0.361H12.029C12.708 0.369 13.317 0.391 13.992 0.451C15.3685 0.56557 16.7339 0.787241 18.076 1.114C19.0495 1.3622 20.0053 1.67523 20.937 2.051C20.9564 2.05837 20.9754 2.06672 20.994 2.076L20.956 4.35C20.95 4.34607 20.9436 4.34272 20.937 4.34C20.0056 3.96433 19.0501 3.6513 18.077 3.403C16.7346 3.07663 15.3688 2.85529 13.992 2.741C13.317 2.681 12.711 2.641 12.032 2.633H11.974C11.295 2.642 10.684 2.681 10.009 2.741C8.63244 2.85632 7.26698 3.07866 5.92497 3.406C4.95147 3.65457 3.99567 3.96794 3.06397 4.344C3.057 4.34668 3.0503 4.35003 3.04397 4.354L3.00597 2.073L3.06397 2.051C3.99535 1.67526 4.95082 1.36223 5.92397 1.114C7.26664 0.786786 8.63278 0.56478 10.01 0.45C10.685 0.39 11.294 0.37 11.973 0.361H11.972ZM12.26 0.577C11.9593 0.571512 11.6585 0.574179 11.358 0.585C11.237 0.59 11.07 0.694 11.068 0.815L11.061 1.463C11.059 1.595 11.233 1.699 11.366 1.702C11.828 1.712 12.236 1.704 12.684 1.732C12.717 1.735 12.746 1.755 12.746 1.788L12.743 1.918C12.7436 1.9241 12.7428 1.93027 12.7408 1.93605C12.7388 1.94184 12.7355 1.94711 12.7312 1.95149C12.7269 1.95588 12.7217 1.95927 12.716 1.96143C12.7102 1.96359 12.7041 1.96447 12.698 1.964C12.177 1.964 11.632 1.939 11.105 1.981C11.077 1.983 11.078 1.976 11.077 2.004L11.053 2.388L11.051 2.418C11.6778 2.38179 12.3062 2.38179 12.933 2.418C13.0061 2.41578 13.0763 2.38856 13.1318 2.34089C13.1873 2.29321 13.2247 2.22796 13.238 2.156L13.244 1.529C13.244 1.4 13.086 1.305 12.983 1.299C12.541 1.271 12.038 1.286 11.589 1.274C11.5827 1.27375 11.5766 1.27225 11.571 1.26957C11.5654 1.26689 11.5604 1.2631 11.5563 1.25842C11.5521 1.25375 11.549 1.24829 11.5471 1.24237C11.5451 1.23645 11.5444 1.2302 11.545 1.224L11.554 1.079C11.554 1.051 11.573 1.043 11.601 1.042C12.045 1.026 12.708 1.047 13.163 1.061C13.1796 1.05819 13.1947 1.04965 13.2056 1.03686C13.2166 1.02407 13.2227 1.00784 13.223 0.991V0.674C13.223 0.657 13.191 0.607 13.16 0.606V0.605C12.8601 0.591588 12.5601 0.582254 12.26 0.577V0.577ZM10.38 0.641C9.95697 0.649 9.03897 0.766 8.51797 0.831L8.51497 2.64V2.663L8.98497 2.603C8.98697 2.60278 8.9889 2.60213 8.99063 2.60109C8.99235 2.60006 8.99383 2.59866 8.99497 2.597C8.99722 2.59418 8.9983 2.5906 8.99797 2.587V2.064L9.94497 1.962C10.028 1.947 10.125 2.008 10.201 2.131C10.2618 2.23501 10.3006 2.35039 10.315 2.47L10.782 2.435C10.792 2.435 10.812 2.435 10.81 2.425C10.7961 2.17289 10.6863 1.93565 10.503 1.762C10.564 1.7373 10.6158 1.69414 10.6511 1.63856C10.6865 1.58298 10.7035 1.51776 10.7 1.452C10.7049 1.26372 10.6975 1.07532 10.678 0.888C10.662 0.819615 10.624 0.758384 10.5698 0.713748C10.5155 0.669111 10.4482 0.643548 10.378 0.641H10.38ZM13.97 0.66C13.8727 0.656285 13.7773 0.68783 13.7014 0.748831C13.6256 0.809831 13.5743 0.896184 13.557 0.992L13.547 2.187C13.5502 2.2547 13.5753 2.31953 13.6186 2.37167C13.6619 2.42381 13.721 2.46043 13.787 2.476C14.397 2.533 14.997 2.588 15.677 2.691C15.688 2.691 15.709 2.684 15.709 2.674V2.258C15.709 2.249 15.689 2.23 15.682 2.228C15.228 2.171 14.629 2.091 14.093 2.035C14.0771 2.03114 14.0628 2.02224 14.0524 2.00963C14.0419 1.99701 14.0358 1.98136 14.035 1.965V1.153C14.035 1.119 14.085 1.101 14.119 1.103C14.648 1.147 15.175 1.243 15.703 1.3C15.717 1.302 15.739 1.293 15.74 1.279L15.75 0.897C15.7493 0.889123 15.7461 0.881669 15.7409 0.87573C15.7357 0.869791 15.7287 0.865681 15.721 0.864C15.1394 0.781884 14.5559 0.713864 13.971 0.66H13.97ZM15.95 0.897C15.938 0.897 15.928 0.911 15.928 0.922C15.922 1.196 15.883 2.379 15.875 2.694V2.721C16.03 2.748 16.201 2.769 16.328 2.795C16.342 2.797 16.363 2.787 16.363 2.773C16.361 2.566 16.363 2.325 16.359 2.137C16.359 2.124 16.365 2.123 16.379 2.125C16.7476 2.19175 17.115 2.2651 17.481 2.345C17.489 2.345 17.533 2.352 17.533 2.375C17.53 2.592 17.526 2.775 17.52 2.992C17.5197 3.00067 17.5221 3.00921 17.527 3.01639C17.5318 3.02358 17.5388 3.02904 17.547 3.032C17.692 3.065 17.83 3.099 17.967 3.132C18.004 3.14 18.01 3.133 18.011 3.12C18.033 2.669 18.041 1.946 18.047 1.336C18.047 1.328 18.044 1.316 18.037 1.314C17.884 1.279 17.74 1.242 17.584 1.209C17.57 1.206 17.562 1.229 17.561 1.244C17.546 1.467 17.552 1.674 17.535 1.896C17.535 1.904 17.535 1.908 17.526 1.906C17.156 1.83 16.761 1.748 16.394 1.679C16.384 1.677 16.388 1.659 16.389 1.648L16.392 0.995C16.3915 0.987856 16.3887 0.981065 16.384 0.975653C16.3793 0.970241 16.373 0.966502 16.366 0.965C16.2272 0.941068 16.0882 0.9184 15.949 0.897H15.95ZM7.93397 0.92C7.92165 0.919246 7.90929 0.919246 7.89697 0.92C7.35397 1.006 6.80797 1.121 6.25697 1.24C6.16861 1.2656 6.08902 1.31508 6.02697 1.383C5.969 1.43653 5.93271 1.50948 5.92497 1.588L5.92897 2.706C5.9332 2.80411 5.97056 2.89788 6.03497 2.972C6.05692 3.00607 6.08714 3.03402 6.12281 3.05326C6.15849 3.07249 6.19845 3.08238 6.23897 3.082C6.78092 2.96258 7.32538 2.85489 7.87197 2.759C7.97695 2.73422 8.07102 2.67595 8.13997 2.593C8.19892 2.5304 8.23366 2.44887 8.23797 2.363L8.23597 1.2C8.23244 1.16116 8.22083 1.12348 8.20189 1.08938C8.18294 1.05528 8.15709 1.02552 8.12597 1.002C8.07368 0.95373 8.00606 0.925408 7.93497 0.922L7.93397 0.92ZM10.091 1.117C10.1107 1.11588 10.13 1.12245 10.1449 1.13533C10.1598 1.1482 10.1692 1.16637 10.171 1.186L10.174 1.375C10.1733 1.41455 10.159 1.45265 10.1335 1.48289C10.108 1.51312 10.0728 1.53365 10.034 1.541L8.97197 1.645L8.96297 1.637V1.23L8.97197 1.226L10.083 1.118C10.0856 1.11786 10.0883 1.11786 10.091 1.118V1.117ZM7.57097 1.407C7.59838 1.40782 7.62517 1.41537 7.64897 1.429C7.66663 1.44023 7.68095 1.45598 7.69045 1.47462C7.69995 1.49327 7.70427 1.51412 7.70297 1.535L7.69397 2.239C7.69489 2.25916 7.69091 2.27924 7.68237 2.29752C7.67384 2.31581 7.66101 2.33175 7.64497 2.344C7.60899 2.36844 7.56798 2.3845 7.52497 2.391C7.19317 2.45709 6.86083 2.52043 6.52797 2.581C6.51295 2.58477 6.49729 2.5852 6.48209 2.58226C6.46688 2.57932 6.45251 2.57309 6.43997 2.564C6.42849 2.55022 6.41991 2.53425 6.41475 2.51707C6.40959 2.49988 6.40797 2.48183 6.40997 2.464V1.738C6.41053 1.70177 6.42483 1.6671 6.44997 1.641C6.48355 1.61014 6.52513 1.58934 6.56997 1.581C6.85997 1.527 7.23997 1.452 7.53797 1.409C7.54888 1.40724 7.55993 1.40657 7.57097 1.407ZM18.381 1.407L18.38 1.408C18.372 1.408 18.372 1.42 18.372 1.427C18.358 2.033 18.342 2.594 18.337 3.2C18.337 3.213 18.343 3.23 18.355 3.233C19.0857 3.42948 19.806 3.66311 20.513 3.933C20.545 3.944 20.544 3.92 20.544 3.911C20.547 3.773 20.554 3.633 20.547 3.495C20.5461 3.48778 20.5433 3.48091 20.5389 3.47511C20.5346 3.46931 20.5287 3.46479 20.522 3.462C19.9785 3.25268 19.4244 3.07209 18.862 2.921C18.8565 2.91915 18.8518 2.91566 18.8484 2.911C18.845 2.90635 18.8431 2.90076 18.843 2.895L18.851 2.715C18.851 2.707 18.865 2.705 18.873 2.707C19.4367 2.86522 19.9938 3.04603 20.543 3.249C20.553 3.252 20.553 3.239 20.553 3.23C20.5601 3.07408 20.5601 2.91792 20.553 2.762C20.5527 2.75615 20.5506 2.75054 20.547 2.7459C20.5434 2.74126 20.5385 2.73781 20.533 2.736C19.9942 2.53985 19.4477 2.36538 18.895 2.213C18.887 2.211 18.877 2.203 18.877 2.195V2.003C18.877 1.995 18.89 1.99 18.898 1.993C19.462 2.137 20.082 2.353 20.513 2.512C20.551 2.526 20.573 2.52 20.573 2.485C20.573 2.328 20.579 2.317 20.571 2.161C20.569 2.141 20.567 2.121 20.549 2.114C19.8391 1.83991 19.115 1.6039 18.38 1.407H18.381ZM5.41097 1.471C5.38272 1.47074 5.35453 1.47376 5.32697 1.48C4.67697 1.646 4.02397 1.894 3.37097 2.132C3.36204 2.13749 3.35462 2.14512 3.34938 2.1542C3.34414 2.16328 3.34125 2.17352 3.34097 2.184V3.65L3.34397 3.98C3.34397 3.98 3.81497 3.803 3.91697 3.77C3.92997 3.766 3.92997 3.753 3.92997 3.739L3.91997 3.219C3.91997 3.204 3.92197 3.182 3.93597 3.179L5.56097 2.677C5.61564 2.65713 5.66351 2.6221 5.69897 2.576C5.73437 2.53187 5.75281 2.47654 5.75097 2.42L5.73397 1.737C5.72974 1.69746 5.7169 1.65933 5.69634 1.62529C5.67578 1.59126 5.648 1.56214 5.61497 1.54C5.55534 1.49736 5.48426 1.47367 5.41097 1.472V1.471ZM5.12497 1.967C5.16097 1.957 5.19497 1.998 5.19697 2.03C5.20658 2.11297 5.21059 2.19649 5.20897 2.28C5.20797 2.325 5.14297 2.377 5.09897 2.39L3.91497 2.776C3.90397 2.78 3.88397 2.776 3.88397 2.764L3.88597 2.406C3.88597 2.389 3.90597 2.375 3.92197 2.37C4.31473 2.2122 4.71642 2.07763 5.12497 1.967V1.967ZM12.092 2.948C12.745 2.958 13.338 2.978 13.992 3.036C15.3681 3.15065 16.7333 3.37232 18.075 3.699C19.0485 3.94711 20.0043 4.26015 20.936 4.636C20.9408 4.63799 20.9455 4.64033 20.95 4.643C20.9473 4.79233 20.9449 4.94166 20.943 5.091H12.092V2.948ZM11.775 2.95L11.774 7.568H8.82697C8.78397 7.564 8.81197 7.545 8.84197 7.516C9.05308 7.3583 9.29778 7.25152 9.55697 7.204C9.57897 7.202 9.58497 7.19 9.55397 7.15C9.43452 7.03088 9.28393 6.94781 9.11945 6.91031C8.95497 6.87282 8.78325 6.88241 8.62397 6.938C8.48082 6.98419 8.35016 7.06256 8.24199 7.16708C8.13383 7.27161 8.05104 7.39952 7.99997 7.541C7.9979 7.54999 7.99279 7.55798 7.9855 7.56363C7.97821 7.56928 7.96919 7.57224 7.95997 7.572C7.8035 7.5818 7.64674 7.58614 7.48997 7.585C7.46497 7.585 7.45297 7.553 7.45497 7.529C7.47549 7.42896 7.51658 7.33428 7.57563 7.25097C7.63467 7.16765 7.71039 7.09751 7.79797 7.045C7.95316 6.94278 8.13171 6.88154 8.31697 6.867C8.32321 6.86513 8.3289 6.86177 8.33355 6.8572C8.33819 6.85263 8.34165 6.84699 8.34362 6.84079C8.34559 6.83458 8.34602 6.82798 8.34486 6.82157C8.3437 6.81516 8.34099 6.80913 8.33697 6.804C8.30638 6.76836 8.27105 6.73707 8.23197 6.711C8.0779 6.62791 7.89982 6.6007 7.72797 6.634C7.48194 6.65786 7.25214 6.76751 7.07882 6.94376C6.9055 7.12 6.79971 7.3516 6.77997 7.598C6.76997 7.658 6.78597 7.672 6.72697 7.692C6.61497 7.73 6.40497 7.756 6.29297 7.78C6.27297 7.783 6.24297 7.737 6.24797 7.717C6.28952 7.52704 6.37288 7.34872 6.49197 7.195C6.58259 7.07347 6.6995 6.97399 6.83397 6.904C6.85997 6.891 6.88397 6.86 6.85997 6.84C6.60697 6.62 6.08897 6.852 5.87997 7.081C5.68263 7.34179 5.58509 7.66457 5.60497 7.991C5.60497 8.007 5.61897 8.032 5.60497 8.038C5.47386 8.09374 5.34041 8.14379 5.20497 8.188C5.19297 8.191 5.19097 8.16 5.18897 8.148C5.14896 7.91182 5.20161 7.66931 5.33597 7.471C5.39469 7.3706 5.47885 7.28747 5.57997 7.23C5.58997 7.224 5.58797 7.212 5.57997 7.202C5.46497 7.053 5.01097 7.16 4.87197 7.296C4.55197 7.608 4.57497 7.911 4.55997 8.393C4.55897 8.416 4.52997 8.504 4.50397 8.516C4.44716 8.54983 4.3849 8.57352 4.31997 8.586C4.29897 8.592 4.29697 8.6 4.29197 8.579C4.2747 8.52275 4.24492 8.47113 4.20487 8.42802C4.16481 8.38491 4.11552 8.35143 4.06069 8.33007C4.00586 8.30872 3.94691 8.30004 3.88825 8.30471C3.82959 8.30937 3.77274 8.32725 3.72197 8.357C3.67911 8.38456 3.64266 8.42101 3.61509 8.46387C3.58753 8.50673 3.56948 8.55501 3.56218 8.60544C3.55488 8.65588 3.5585 8.7073 3.57278 8.75621C3.58706 8.80513 3.61168 8.85042 3.64497 8.889C3.65997 8.906 3.66497 8.923 3.64197 8.93C3.58849 8.94646 3.53884 8.97343 3.49593 9.00935C3.45302 9.04526 3.41772 9.08939 3.3921 9.13913C3.36649 9.18888 3.35107 9.24324 3.34675 9.29903C3.34243 9.35482 3.34931 9.41091 3.36697 9.464C3.39103 9.52367 3.43171 9.57518 3.48418 9.6124C3.53665 9.64963 3.59871 9.67101 3.66297 9.674C3.79458 9.67767 3.92401 9.63989 4.03297 9.566C4.03757 9.56272 4.04277 9.56037 4.04827 9.55909C4.05377 9.55782 4.05947 9.55764 4.06504 9.55857C4.07062 9.5595 4.07595 9.56151 4.08074 9.56451C4.08553 9.5675 4.08969 9.5714 4.09297 9.576C4.14702 9.66277 4.23328 9.72456 4.33283 9.7478C4.43238 9.77105 4.53708 9.75386 4.62397 9.7C4.78597 9.593 4.85797 9.427 4.73797 9.141C4.73097 9.125 4.75797 9.095 4.77197 9.087C5.72999 8.53559 6.81091 8.23304 7.91597 8.207C8.07175 8.22049 8.22507 8.25445 8.37197 8.308C8.37995 8.30966 8.38769 8.31235 8.39497 8.316L8.39697 9.257C8.3866 9.26657 8.3752 9.27495 8.36297 9.282C8.15777 9.4077 8.00448 9.60286 7.93097 9.832C7.92697 9.849 7.92497 9.853 7.89597 9.856C7.70297 9.875 7.49697 9.903 7.30497 9.918C7.29397 9.92 7.27297 9.899 7.27697 9.888C7.41609 9.51603 7.67002 9.198 8.00197 8.98C8.01059 8.97137 8.01621 8.96021 8.01801 8.94815C8.01981 8.93609 8.01769 8.92377 8.01197 8.913C7.96499 8.86794 7.90709 8.83589 7.84397 8.82C7.67699 8.80732 7.50933 8.83339 7.35408 8.89618C7.19883 8.95898 7.06019 9.05679 6.94897 9.182C6.74967 9.43036 6.63977 9.73857 6.63697 10.057C6.63597 10.079 6.63997 10.115 6.61797 10.122C6.49397 10.161 6.35697 10.196 6.22797 10.232C6.21297 10.236 6.19297 10.221 6.18997 10.205C6.15741 10.0043 6.18642 9.79847 6.27318 9.6146C6.35994 9.43073 6.50037 9.27747 6.67597 9.175C6.72697 9.135 6.63797 9.073 6.57397 9.073C6.38671 9.06285 6.20056 9.10759 6.03838 9.20175C5.87619 9.2959 5.74502 9.43535 5.66097 9.603C5.56863 9.85776 5.55814 10.135 5.63097 10.396C5.63397 10.419 5.64997 10.459 5.62497 10.465C5.54597 10.484 5.35997 10.555 5.30197 10.573C5.28097 10.58 5.26697 10.57 5.25497 10.543C5.20937 10.3843 5.20217 10.217 5.23397 10.055C5.27927 9.87029 5.3716 9.70046 5.50197 9.562C5.50997 9.552 5.51297 9.53 5.50197 9.525C5.38313 9.47129 5.24886 9.46241 5.12397 9.5C5.02203 9.52581 4.92676 9.57305 4.84451 9.63858C4.76226 9.7041 4.69491 9.7864 4.64697 9.88C4.48797 10.177 4.52897 10.463 4.69797 10.885C4.70597 10.905 4.71597 10.943 4.69797 10.955L4.56097 11.035C4.54397 11.048 4.52897 11.037 4.51697 11.02C4.46197 10.942 4.39297 10.818 4.30697 10.78C4.23922 10.7462 4.16353 10.7317 4.08809 10.7378C4.01265 10.744 3.94034 10.7707 3.87897 10.815C3.81895 10.8672 3.77558 10.9359 3.75425 11.0125C3.73292 11.0891 3.73456 11.1703 3.75897 11.246C3.78693 11.3 3.82045 11.3509 3.85897 11.398C3.86897 11.412 3.85797 11.434 3.84597 11.445C3.78697 11.497 3.70597 11.535 3.65797 11.585C3.60594 11.652 3.57687 11.734 3.57507 11.8188C3.57327 11.9037 3.59883 11.9868 3.64797 12.056C3.69683 12.1258 3.76857 12.1763 3.85076 12.1988C3.93294 12.2212 4.0204 12.2142 4.09797 12.179C4.17847 12.1447 4.25605 12.1039 4.32997 12.057C4.35697 12.039 4.37497 12.006 4.39997 12.032C4.46058 12.101 4.53762 12.1537 4.62397 12.185C4.68394 12.201 4.74668 12.2038 4.80781 12.1931C4.86895 12.1823 4.92702 12.1584 4.97797 12.123C5.03985 12.0937 5.09006 12.0444 5.12054 11.9831C5.15101 11.9218 5.15997 11.852 5.14597 11.785C5.11451 11.6873 5.0661 11.5959 5.00297 11.515C4.96997 11.48 4.96797 11.482 5.00297 11.461C5.52474 11.1529 6.0822 10.9098 6.66297 10.737C7.21043 10.5724 7.78196 10.5023 8.35297 10.53H8.39897L8.40197 12.479H3.20597C3.15197 10.346 3.08997 6.969 3.04997 4.643C3.05447 4.64035 3.05915 4.63801 3.06397 4.636C3.99532 4.26018 4.95079 3.94715 5.92397 3.699C7.26602 3.37226 8.63149 3.15059 10.008 3.036C10.596 2.98503 11.1858 2.95634 11.776 2.95H11.775ZM8.68697 3.766C8.43788 3.77178 8.19634 3.85264 7.99397 3.998C7.70797 4.186 7.53797 4.771 7.50397 4.98C7.50223 4.98958 7.49736 4.99831 7.49012 5.00483C7.48288 5.01134 7.47368 5.01527 7.46397 5.016C7.23644 5.04471 7.01073 5.08644 6.78797 5.141C6.78097 5.142 6.77597 5.131 6.77597 5.124C6.79329 4.90394 6.88417 4.69612 7.03397 4.534C7.18604 4.38742 7.35105 4.25488 7.52697 4.138C7.53997 4.127 7.53097 4.093 7.51497 4.087C7.38793 4.03622 7.25207 4.01114 7.11527 4.0132C6.97847 4.01526 6.84343 4.04442 6.71797 4.099C6.54094 4.17407 6.38601 4.29311 6.26788 4.44484C6.14975 4.59657 6.07234 4.77596 6.04297 4.966C6.01968 5.10136 6.00996 5.23871 6.01397 5.376C6.01597 5.393 5.98397 5.394 5.96897 5.399C5.72297 5.476 5.46497 5.566 5.25897 5.635C5.24897 5.639 5.21997 5.637 5.21997 5.625C5.21226 5.39417 5.27316 5.16623 5.39497 4.97C5.51497 4.775 5.73797 4.665 5.89997 4.501C5.91097 4.489 5.92797 4.457 5.91097 4.45C5.50097 4.285 5.11397 4.454 4.78697 4.825C4.67625 4.98765 4.60119 5.17189 4.56672 5.3656C4.53226 5.55932 4.53916 5.75814 4.58697 5.949C4.59597 5.985 4.58697 6.024 4.56797 6.032C4.49342 6.06688 4.41658 6.09661 4.33797 6.121C4.33449 6.12222 4.33078 6.12265 4.32712 6.12227C4.32345 6.12189 4.31991 6.1207 4.31676 6.11878C4.3136 6.11687 4.31091 6.11429 4.30887 6.11121C4.30683 6.10814 4.3055 6.10465 4.30497 6.101C4.21197 5.805 3.86497 5.863 3.70797 5.953C3.625 5.9997 3.56384 6.0773 3.5378 6.16888C3.51177 6.26047 3.52297 6.35863 3.56897 6.442C3.57133 6.44551 3.57294 6.44946 3.57372 6.45361C3.57449 6.45777 3.57441 6.46204 3.57347 6.46616C3.57253 6.47028 3.57076 6.47417 3.56827 6.47758C3.56578 6.48099 3.56261 6.48386 3.55897 6.486C3.50604 6.51129 3.45867 6.54687 3.41963 6.59066C3.38059 6.63445 3.35066 6.68557 3.33158 6.74104C3.3125 6.79652 3.30465 6.85523 3.3085 6.91377C3.31234 6.97231 3.3278 7.0295 3.35397 7.082C3.39816 7.15114 3.46512 7.20267 3.54327 7.22769C3.62141 7.2527 3.70585 7.24963 3.78197 7.219C3.86866 7.1856 3.95121 7.14232 4.02797 7.09C4.0328 7.08759 4.03824 7.08669 4.04359 7.0874C4.04893 7.08811 4.05394 7.09041 4.05797 7.094C4.0889 7.13768 4.12842 7.17459 4.17412 7.20245C4.21982 7.23032 4.27073 7.24856 4.32372 7.25605C4.37672 7.26354 4.43069 7.26012 4.48232 7.24602C4.53395 7.23191 4.58215 7.2074 4.62397 7.174C4.73897 7.092 4.78397 7.078 4.82797 6.93C4.83452 6.87649 4.8299 6.8222 4.81441 6.77057C4.79892 6.71893 4.77289 6.67107 4.73797 6.63C4.72597 6.62 4.73697 6.59 4.75097 6.583C6.0508 5.9134 7.48527 5.54658 8.94697 5.51C9.4776 5.52572 9.98727 5.72063 10.393 6.063C10.3999 6.07297 10.4092 6.08103 10.42 6.08645C10.4308 6.09187 10.4429 6.09447 10.455 6.094C10.4673 6.08885 10.4785 6.08122 10.4878 6.07159C10.4971 6.06196 10.5043 6.05053 10.509 6.038C10.5429 5.91728 10.5417 5.7894 10.5056 5.66933C10.4695 5.54926 10.3999 5.44196 10.305 5.36C10.1395 5.18737 9.92649 5.06766 9.69297 5.016C9.68097 5.013 9.67297 4.987 9.68297 4.979C9.77807 4.8831 9.89218 4.80816 10.018 4.759C10.2179 4.72527 10.4203 4.70854 10.623 4.709C10.637 4.708 10.658 4.694 10.653 4.681C10.6133 4.57043 10.5424 4.47375 10.4489 4.40273C10.3553 4.33172 10.2431 4.28943 10.126 4.281C9.89018 4.25159 9.65083 4.28613 9.43297 4.381C9.20794 4.5027 9.03146 4.69789 8.93297 4.934C8.93001 4.93997 8.92545 4.945 8.9198 4.94853C8.91415 4.95206 8.90763 4.95395 8.90097 4.954C8.70306 4.94682 8.505 4.94449 8.30697 4.947C8.29297 4.947 8.27197 4.947 8.27197 4.933C8.30092 4.73827 8.39009 4.55749 8.52697 4.416C8.72587 4.24361 8.957 4.11241 9.20697 4.03C9.22597 4.024 9.24697 3.994 9.23597 3.979C9.18375 3.90687 9.11477 3.84853 9.03497 3.809C8.92183 3.77898 8.805 3.76518 8.68797 3.768L8.68697 3.766ZM12.092 5.373H20.937C20.925 6.059 20.912 6.806 20.897 7.568H12.092V5.373ZM8.68097 7.801L15.347 7.804C15.3509 7.80369 15.3548 7.80484 15.358 7.80724C15.3611 7.80964 15.3632 7.81312 15.364 7.817L15.362 12.955C15.357 13.2158 15.3086 13.474 15.219 13.719C14.9536 14.4436 14.4445 15.0534 13.779 15.444C13.2526 15.7586 12.6522 15.9281 12.039 15.935C11.2076 15.9249 10.4068 15.6201 9.77897 15.075C9.43978 14.7918 9.16552 14.439 8.97485 14.0404C8.78418 13.6418 8.68156 13.2068 8.67397 12.765L8.66697 7.82C8.66697 7.807 8.66797 7.801 8.68097 7.801ZM15.675 7.887H20.892C20.88 8.532 20.867 9.183 20.858 9.813H15.675V8.318V7.887ZM8.83597 7.958C8.82297 7.958 8.82197 7.963 8.82197 7.976L8.82897 12.729C8.83535 13.1537 8.93274 13.572 9.11456 13.9559C9.29638 14.3397 9.55841 14.6801 9.88297 14.954C10.4794 15.4771 11.2428 15.7703 12.036 15.781C12.6216 15.7742 13.1947 15.6109 13.696 15.308C14.3325 14.9306 14.8182 14.3438 15.07 13.648C15.1553 13.4125 15.2013 13.1645 15.206 12.914L15.208 7.974C15.2078 7.97203 15.2073 7.9701 15.2065 7.96833C15.2056 7.96656 15.2044 7.96498 15.2029 7.96368C15.2014 7.96238 15.1997 7.96138 15.1978 7.96075C15.1959 7.96012 15.1939 7.95986 15.192 7.96L8.83597 7.958ZM13.272 8.262C13.2723 8.262 13.2726 8.262 13.273 8.262C13.2925 8.26493 13.3109 8.27307 13.3262 8.28556C13.3415 8.29806 13.3532 8.31444 13.36 8.333L13.602 9.048C13.6069 9.05911 13.6092 9.07121 13.6087 9.08335C13.6081 9.09549 13.6048 9.10735 13.599 9.118C13.5925 9.12592 13.5842 9.13222 13.5748 9.13638C13.5654 9.14055 13.5552 9.14247 13.545 9.142C13.5312 9.14231 13.5176 9.13822 13.5063 9.13031C13.4949 9.12239 13.4864 9.11108 13.482 9.098L13.444 8.973H13.114L13.078 9.101C13.068 9.141 13.038 9.145 13.007 9.145C12.9981 9.14375 12.9895 9.1406 12.9819 9.13577C12.9743 9.13094 12.9679 9.12454 12.963 9.117C12.9572 9.10979 12.9533 9.10129 12.9516 9.09223C12.9498 9.08317 12.9503 9.07383 12.953 9.065L13.185 8.337C13.1901 8.31714 13.2012 8.29933 13.2168 8.28593C13.2323 8.27253 13.2516 8.26418 13.272 8.262V8.262ZM12.509 8.269C12.5166 8.26861 12.5243 8.26861 12.532 8.269C12.583 8.26563 12.6336 8.2792 12.6761 8.30759C12.7186 8.33598 12.7506 8.3776 12.767 8.426C12.769 8.4319 12.7697 8.43815 12.7693 8.44437C12.7688 8.45058 12.767 8.45663 12.7641 8.46215C12.7612 8.46766 12.7572 8.47254 12.7524 8.47646C12.7476 8.48039 12.742 8.4833 12.736 8.485C12.724 8.49124 12.71 8.49264 12.697 8.48892C12.684 8.4852 12.6729 8.47664 12.666 8.465C12.6533 8.44011 12.6346 8.41881 12.6115 8.40308C12.5884 8.38734 12.5618 8.37769 12.534 8.375C12.5044 8.37681 12.4761 8.38725 12.4525 8.40503C12.4288 8.4228 12.4109 8.44714 12.401 8.475C12.3657 8.54373 12.3468 8.61973 12.346 8.697C12.344 8.77549 12.3598 8.85341 12.392 8.925C12.4038 8.95592 12.425 8.98237 12.4526 9.00066C12.4802 9.01894 12.5129 9.02815 12.546 9.027C12.5974 9.01177 12.642 8.97929 12.6722 8.93502C12.7024 8.89076 12.7165 8.83742 12.712 8.784V8.745H12.577C12.5688 8.74533 12.5606 8.7439 12.553 8.7408C12.5455 8.73769 12.5386 8.73299 12.533 8.72701C12.5274 8.72103 12.5232 8.71392 12.5206 8.70615C12.518 8.69838 12.5171 8.69015 12.518 8.682C12.518 8.659 12.525 8.632 12.577 8.632H12.769C12.833 8.632 12.842 8.68 12.842 8.722C12.8432 8.7729 12.8395 8.8238 12.831 8.874C12.8111 8.96819 12.7578 9.052 12.681 9.11C12.6356 9.13727 12.5839 9.1521 12.531 9.153C12.4834 9.1522 12.437 9.13822 12.397 9.11262C12.3569 9.08702 12.3247 9.05081 12.304 9.008C12.253 8.91282 12.2278 8.80594 12.231 8.698C12.229 8.59122 12.2567 8.48598 12.311 8.394C12.3294 8.35707 12.3576 8.32589 12.3925 8.30386C12.4274 8.28182 12.4677 8.26977 12.509 8.269V8.269ZM9.52097 8.271C9.52231 8.27099 9.52364 8.27099 9.52497 8.271C9.70797 8.273 9.76797 8.382 9.76797 8.421C9.76797 8.456 9.70697 8.501 9.67297 8.46C9.65346 8.43776 9.62926 8.42012 9.60211 8.40836C9.57496 8.39661 9.54554 8.39102 9.51597 8.392C9.4838 8.38868 9.45145 8.39636 9.4242 8.4138C9.39696 8.43124 9.37643 8.45739 9.36597 8.488C9.36295 8.50307 9.36301 8.51859 9.36614 8.53363C9.36928 8.54867 9.37542 8.56293 9.3842 8.57554C9.39298 8.58815 9.40421 8.59885 9.41724 8.60701C9.43026 8.61516 9.44479 8.6206 9.45997 8.623C9.55395 8.6287 9.64534 8.65608 9.72697 8.703H9.72597C9.75374 8.72357 9.77577 8.75092 9.78996 8.78243C9.80414 8.81395 9.81 8.84857 9.80697 8.883C9.80849 8.94787 9.78442 9.01073 9.73997 9.058C9.7071 9.08892 9.66819 9.1127 9.62568 9.12784C9.58317 9.14299 9.53799 9.14917 9.49297 9.146C9.44069 9.1479 9.38883 9.13595 9.34265 9.11136C9.29646 9.08678 9.25759 9.05043 9.22997 9.006C9.22597 8.996 9.21997 8.943 9.26397 8.928C9.27871 8.92454 9.29412 8.92513 9.30855 8.92971C9.32299 8.93428 9.33592 8.94268 9.34597 8.954C9.38862 8.99321 9.44406 9.0156 9.50197 9.017C9.55572 9.01872 9.60828 9.00097 9.64997 8.967C9.66518 8.95233 9.67561 8.9334 9.67989 8.91271C9.68417 8.89201 9.68211 8.8705 9.67397 8.851C9.65305 8.81934 9.62426 8.79367 9.59043 8.77649C9.55659 8.75931 9.51888 8.75122 9.48097 8.753C9.41678 8.75262 9.35519 8.72755 9.30897 8.683C9.28409 8.65719 9.26505 8.62633 9.25314 8.59251C9.24124 8.55869 9.23675 8.52271 9.23997 8.487C9.24323 8.45404 9.25392 8.42224 9.27124 8.39401C9.28856 8.36578 9.31206 8.34184 9.33997 8.324C9.39356 8.28844 9.45667 8.26996 9.52097 8.271V8.271ZM11.17 8.271C11.1703 8.271 11.1706 8.271 11.171 8.271C11.173 8.2709 11.175 8.2709 11.177 8.271H11.532C11.5479 8.271 11.5631 8.27732 11.5744 8.28857C11.5857 8.29983 11.592 8.31509 11.592 8.331C11.592 8.34691 11.5857 8.36217 11.5744 8.37343C11.5631 8.38468 11.5479 8.391 11.532 8.391L11.418 8.393V9.075C11.416 9.09021 11.4086 9.1042 11.3971 9.11434C11.3856 9.12448 11.3708 9.13008 11.3555 9.13008C11.3401 9.13008 11.3253 9.12448 11.3138 9.11434C11.3023 9.1042 11.2949 9.09021 11.293 9.075V8.392H11.177C11.1611 8.39293 11.1454 8.3875 11.1335 8.3769C11.1216 8.36631 11.1144 8.35141 11.1135 8.3355C11.1125 8.31959 11.118 8.30396 11.1286 8.29205C11.1392 8.28014 11.1541 8.27293 11.17 8.272V8.271ZM11.73 8.271C11.7303 8.271 11.7306 8.271 11.731 8.271C11.733 8.2709 11.735 8.2709 11.737 8.271H12.091C12.1069 8.271 12.1221 8.27732 12.1334 8.28857C12.1447 8.29983 12.151 8.31509 12.151 8.331C12.151 8.34691 12.1447 8.36217 12.1334 8.37343C12.1221 8.38468 12.1069 8.391 12.091 8.391L11.977 8.393V9.075C11.975 9.09021 11.9676 9.1042 11.9561 9.11434C11.9446 9.12448 11.9298 9.13008 11.9145 9.13008C11.8991 9.13008 11.8843 9.12448 11.8728 9.11434C11.8613 9.1042 11.8539 9.09021 11.852 9.075V8.392H11.737C11.7211 8.39293 11.7054 8.3875 11.6935 8.3769C11.6816 8.36631 11.6744 8.35141 11.6735 8.3355C11.6725 8.31959 11.678 8.30396 11.6886 8.29205C11.6992 8.28014 11.7141 8.27293 11.73 8.272V8.271ZM14.47 8.271C14.4706 8.27099 14.4713 8.27099 14.472 8.271C14.474 8.2709 14.476 8.2709 14.478 8.271H14.831C14.8469 8.271 14.8621 8.27732 14.8734 8.28857C14.8847 8.29983 14.891 8.31509 14.891 8.331C14.891 8.34691 14.8847 8.36217 14.8734 8.37343C14.8621 8.38468 14.8469 8.391 14.831 8.391L14.719 8.393V9.075C14.717 9.09021 14.7096 9.1042 14.6981 9.11434C14.6866 9.12448 14.6718 9.13008 14.6565 9.13008C14.6411 9.13008 14.6263 9.12448 14.6148 9.11434C14.6033 9.1042 14.5959 9.09021 14.594 9.075V8.392H14.478C14.4621 8.39293 14.4464 8.3875 14.4345 8.3769C14.4226 8.36631 14.4154 8.35141 14.4145 8.3355C14.4135 8.31959 14.419 8.30396 14.4296 8.29205C14.4402 8.28014 14.4551 8.27293 14.471 8.272L14.47 8.271ZM13.793 8.275C13.797 8.27462 13.801 8.27462 13.805 8.275H13.995C14.0686 8.27285 14.1411 8.29307 14.203 8.333C14.2348 8.3575 14.2609 8.3886 14.2796 8.42416C14.2982 8.45972 14.3089 8.4989 14.311 8.539C14.3153 8.57525 14.3112 8.61202 14.2989 8.64639C14.2865 8.68076 14.2664 8.71178 14.24 8.737C14.2073 8.77067 14.1672 8.79634 14.123 8.812L14.103 8.819L14.261 9.019C14.2752 9.03426 14.2833 9.05416 14.284 9.075C14.282 9.107 14.261 9.125 14.224 9.125C14.2131 9.12545 14.2024 9.12322 14.1926 9.11851C14.1828 9.1138 14.1744 9.10675 14.168 9.098L13.981 8.84H13.864V9.07C13.8652 9.07874 13.8644 9.08764 13.8618 9.09605C13.8591 9.10446 13.8546 9.11217 13.8485 9.11859C13.8425 9.12502 13.8351 9.13001 13.8268 9.1332C13.8186 9.13638 13.8098 9.13768 13.801 9.137C13.7923 9.13735 13.7837 9.13581 13.7756 9.1325C13.7676 9.12918 13.7604 9.12417 13.7545 9.1178C13.7486 9.11143 13.7442 9.10386 13.7415 9.09561C13.7388 9.08735 13.738 9.07862 13.739 9.07V8.344C13.7379 8.32593 13.7436 8.30811 13.755 8.294C13.7651 8.28346 13.7785 8.27674 13.793 8.275V8.275ZM9.92297 8.277C9.92397 8.27698 9.92497 8.27698 9.92597 8.277H10.283C10.299 8.277 10.3144 8.28337 10.3258 8.29472C10.3371 8.30607 10.3435 8.32145 10.3435 8.3375C10.3435 8.35355 10.3371 8.36893 10.3258 8.38028C10.3144 8.39163 10.299 8.398 10.283 8.398H10.167V9.082C10.165 9.09721 10.1576 9.1112 10.1461 9.12134C10.1346 9.13148 10.1198 9.13708 10.1045 9.13708C10.0891 9.13708 10.0743 9.13148 10.0628 9.12134C10.0513 9.1112 10.0439 9.09721 10.042 9.082V8.398H9.92597C9.91006 8.3984 9.89464 8.39246 9.88311 8.38149C9.87157 8.37052 9.86487 8.35541 9.86447 8.3395C9.86407 8.32359 9.87001 8.30817 9.88099 8.29663C9.89196 8.2851 9.90706 8.2784 9.92297 8.278V8.277ZM10.506 8.277C10.5066 8.27699 10.5073 8.27699 10.508 8.277C10.5165 8.27673 10.525 8.27819 10.5329 8.2813C10.5409 8.2844 10.5481 8.28909 10.5542 8.29508C10.5603 8.30106 10.5651 8.30822 10.5683 8.31611C10.5715 8.324 10.5731 8.33247 10.573 8.341V8.812C10.5695 8.86494 10.5824 8.91767 10.61 8.963C10.6248 8.98214 10.6442 8.99728 10.6664 9.00706C10.6886 9.01683 10.7128 9.02094 10.737 9.019C10.7609 9.02135 10.785 9.01742 10.8069 9.0076C10.8288 8.99778 10.8478 8.98241 10.862 8.963C10.8882 8.91757 10.9004 8.86536 10.897 8.813V8.34H10.898C10.8999 8.32479 10.9073 8.3108 10.9188 8.30066C10.9303 8.29052 10.9451 8.28492 10.9605 8.28492C10.9758 8.28492 10.9906 8.29052 11.0021 8.30066C11.0136 8.3108 11.021 8.32479 11.023 8.34V8.772C11.0299 8.8629 11.0104 8.95387 10.967 9.034C10.9415 9.06987 10.907 9.09837 10.8669 9.11663C10.8269 9.13489 10.7828 9.14226 10.739 9.138C10.695 9.14163 10.6507 9.13398 10.6105 9.11578C10.5703 9.09759 10.5353 9.06944 10.509 9.034C10.4628 8.95479 10.4415 8.86348 10.448 8.772V8.34C10.4479 8.32412 10.4539 8.30881 10.4646 8.29713C10.4754 8.28545 10.4901 8.27826 10.506 8.277V8.277ZM13.86 8.392V8.72H13.99C14.0147 8.72278 14.0398 8.72038 14.0636 8.71297C14.0874 8.70555 14.1094 8.69328 14.1282 8.67692C14.147 8.66057 14.1622 8.64048 14.1728 8.61795C14.1835 8.59541 14.1893 8.57091 14.19 8.546C14.1895 8.52529 14.1847 8.50492 14.1759 8.48616C14.1671 8.4674 14.1545 8.45066 14.139 8.437C14.1214 8.42125 14.1008 8.40916 14.0785 8.40143C14.0562 8.39371 14.0325 8.3905 14.009 8.392H13.86ZM13.276 8.407L13.14 8.876H13.418L13.276 8.407ZM12.136 9.412C12.147 9.412 12.157 9.414 12.158 9.423C12.16 9.441 12.142 9.452 12.116 9.465C12.0772 9.48143 12.0444 9.50935 12.022 9.545C11.9943 9.59472 11.9808 9.65112 11.983 9.708C11.9868 9.7251 11.9944 9.7411 12.0053 9.75479C12.0162 9.76848 12.0301 9.7795 12.046 9.787C12.0903 9.80786 12.1391 9.81748 12.188 9.815C12.2635 9.81046 12.337 9.78893 12.403 9.752C12.492 9.7232 12.5867 9.71634 12.679 9.732C12.7486 9.73271 12.8162 9.7547 12.873 9.795C12.897 9.812 12.893 9.833 12.884 9.835C12.87 9.84 12.855 9.823 12.84 9.825C12.7917 9.82986 12.7441 9.83992 12.698 9.855C12.638 9.882 12.611 9.892 12.582 9.945C12.5704 9.96754 12.5679 9.99367 12.575 10.018C12.585 10.042 12.61 10.058 12.615 10.075C12.6296 10.1198 12.6512 10.162 12.679 10.2C12.6882 10.2086 12.6983 10.2163 12.709 10.223C12.8085 10.2973 12.9027 10.3785 12.991 10.466C13.0103 10.4941 13.0239 10.5257 13.031 10.559C13.034 10.571 13.024 10.589 13.013 10.584C13.0001 10.5754 12.9881 10.5657 12.977 10.555C12.9619 10.5388 12.9439 10.5256 12.924 10.516C12.8682 10.4934 12.8078 10.4848 12.748 10.491C12.721 10.491 12.667 10.515 12.698 10.527C12.751 10.5541 12.7963 10.5939 12.83 10.643C12.9052 10.7281 12.9437 10.8396 12.937 10.953C12.937 10.959 12.925 10.963 12.922 10.959C12.896 10.9159 12.8612 10.8788 12.82 10.85C12.7593 10.8056 12.685 10.7837 12.61 10.788C12.595 10.789 12.55 10.788 12.555 10.802C12.602 10.8616 12.6432 10.9256 12.678 10.993C12.7139 11.0803 12.7274 11.1752 12.717 11.269C12.716 11.274 12.697 11.279 12.694 11.274C12.6706 11.2464 12.6448 11.221 12.617 11.198C12.5891 11.1731 12.5573 11.1528 12.523 11.138C12.4538 11.1221 12.3813 11.132 12.319 11.166C12.2638 11.1965 12.2186 11.2423 12.189 11.298C12.1535 11.361 12.1323 11.4309 12.127 11.503C12.1159 11.5909 12.1305 11.6802 12.169 11.76C12.2111 11.8352 12.2784 11.8933 12.359 11.924C12.4668 11.9583 12.5799 11.9732 12.693 11.968C12.832 11.973 12.971 11.952 13.11 11.948C13.2417 11.9355 13.3744 11.9365 13.506 11.951C13.6125 11.9721 13.7142 12.0128 13.806 12.071C13.8809 12.1281 13.9526 12.1892 14.021 12.254C14.029 12.26 14.047 12.251 14.056 12.245C14.1216 12.1819 14.1672 12.1009 14.187 12.012C14.1999 11.9259 14.1799 11.838 14.131 11.766C14.084 11.681 14.015 11.586 13.961 11.496C13.8877 11.4015 13.8203 11.3027 13.759 11.2C13.7258 11.1311 13.7197 11.0522 13.742 10.979C13.761 10.9248 13.799 10.8794 13.849 10.851C13.86 10.844 13.871 10.857 13.866 10.872C13.8517 10.9076 13.8489 10.9467 13.858 10.984C13.8748 11.0377 13.9055 11.086 13.947 11.124C13.96 11.134 13.994 11.119 14.002 11.103C14.02 11.06 14.009 10.993 14.025 10.949C14.0452 10.8671 14.0819 10.7902 14.133 10.723C14.2432 10.6412 14.3644 10.5752 14.493 10.527C14.526 10.508 14.547 10.422 14.584 10.436C14.621 10.449 14.601 10.536 14.573 10.578C14.533 10.64 14.486 10.678 14.442 10.734C14.3819 10.8111 14.3293 10.8939 14.285 10.981C14.2608 11.0223 14.2506 11.0704 14.256 11.118C14.2605 11.1381 14.2694 11.1569 14.282 11.1731C14.2946 11.1894 14.3106 11.2027 14.329 11.212C14.351 11.222 14.379 11.202 14.399 11.187C14.4374 11.159 14.4703 11.124 14.496 11.084C14.519 11.046 14.506 10.995 14.528 10.956C14.534 10.947 14.558 10.949 14.565 10.956C14.589 10.978 14.6046 11.0077 14.609 11.04C14.6111 11.078 14.6078 11.116 14.599 11.153C14.596 11.161 14.575 11.18 14.568 11.198C14.5625 11.2119 14.5558 11.2253 14.548 11.238C14.512 11.301 14.47 11.354 14.423 11.364C14.413 11.365 14.406 11.385 14.413 11.394C14.4403 11.4459 14.4789 11.491 14.526 11.526C14.5494 11.5376 14.5749 11.5445 14.601 11.5462C14.6271 11.5479 14.6532 11.5445 14.678 11.536C14.705 11.528 14.726 11.509 14.757 11.499C14.77 11.495 14.762 11.503 14.762 11.516C14.7617 11.5453 14.7566 11.5743 14.747 11.602C14.7309 11.6366 14.7047 11.6655 14.672 11.685C14.621 11.7138 14.5643 11.7308 14.506 11.735C14.479 11.74 14.438 11.76 14.448 11.786C14.4566 11.8167 14.4708 11.8455 14.49 11.871C14.5108 11.8936 14.5393 11.9075 14.57 11.91C14.6144 11.9119 14.6583 11.8993 14.695 11.874C14.735 11.848 14.756 11.8 14.791 11.766C14.798 11.76 14.817 11.766 14.817 11.776C14.8156 11.8311 14.8016 11.8852 14.776 11.934C14.7425 11.9877 14.699 12.0346 14.648 12.072C14.633 12.085 14.615 12.101 14.615 12.121C14.6227 12.1521 14.6378 12.1809 14.659 12.205C14.6787 12.2329 14.7084 12.2523 14.742 12.259C14.775 12.2653 14.8089 12.2653 14.842 12.259C14.855 12.259 14.852 12.282 14.841 12.29C14.8089 12.3229 14.7684 12.3464 14.724 12.358C14.6827 12.3718 14.6386 12.3745 14.596 12.366C14.515 12.346 14.462 12.316 14.382 12.293C14.3389 12.2765 14.2919 12.2734 14.247 12.284C14.2041 12.3003 14.1671 12.3293 14.141 12.367C14.1254 12.3852 14.115 12.4074 14.111 12.431C14.105 12.494 14.136 12.561 14.116 12.623C14.0959 12.7032 14.0688 12.7815 14.035 12.857C14.0009 12.9149 13.9625 12.97 13.92 13.022C13.88 13.076 13.827 13.096 13.8 13.155C13.7885 13.1767 13.7758 13.1977 13.762 13.218C13.7252 13.2888 13.7053 13.3672 13.704 13.447C13.7142 13.5227 13.7434 13.5946 13.789 13.656L13.942 13.893C13.9528 13.9192 13.9559 13.948 13.951 13.976C13.9499 13.9904 13.9454 14.0043 13.9377 14.0165C13.93 14.0287 13.9195 14.0388 13.907 14.046C13.7039 14.1603 13.5535 14.3494 13.488 14.573L13.486 14.586V14.59C13.4822 14.6054 13.475 14.6197 13.465 14.632C13.4138 14.6839 13.3471 14.7176 13.275 14.728C13.22 14.743 13.165 14.757 13.11 14.774C13.0921 14.7787 13.0764 14.7897 13.066 14.805C13.0566 14.8199 13.0524 14.8375 13.054 14.855C13.0556 14.8726 13.063 14.8891 13.075 14.902C13.0916 14.9223 13.102 14.9469 13.105 14.973C13.1058 14.9881 13.1012 15.003 13.092 15.015C13.0839 15.0238 13.0745 15.0313 13.064 15.037C12.9962 15.0756 12.9236 15.1049 12.848 15.124C12.798 15.135 12.762 15.122 12.778 15.065C12.8057 14.9658 12.8384 14.868 12.876 14.772C12.9088 14.7156 12.9544 14.6677 13.009 14.632C13.0764 14.5739 13.1472 14.5198 13.221 14.47C13.2691 14.4369 13.3097 14.394 13.34 14.344C13.3986 14.2492 13.462 14.1574 13.53 14.069C13.5435 14.0507 13.5531 14.0298 13.5581 14.0076C13.5631 13.9854 13.5634 13.9623 13.559 13.94C13.5525 13.8998 13.5361 13.8619 13.5113 13.8296C13.4865 13.7973 13.4541 13.7717 13.417 13.755C13.3891 13.7424 13.3608 13.7311 13.332 13.721C13.2348 13.6875 13.1494 13.6268 13.086 13.546C13.0791 13.5353 13.0699 13.5262 13.0593 13.5194C13.0486 13.5125 13.0365 13.5079 13.024 13.506C12.961 13.508 12.943 13.596 12.941 13.644C12.9359 13.7146 12.9372 13.7856 12.945 13.856C12.9511 13.8795 12.9525 13.904 12.949 13.928C12.9458 13.9364 12.9405 13.9439 12.9337 13.9499C12.9269 13.9558 12.9188 13.96 12.91 13.962C12.7115 14.033 12.5219 14.1266 12.345 14.241C12.3196 14.2599 12.2981 14.2837 12.282 14.311L12.265 14.34C12.2428 14.377 12.2084 14.4052 12.1678 14.4198C12.1271 14.4344 12.0827 14.4345 12.042 14.42C12.0275 14.4157 12.0128 14.412 11.998 14.409C11.9753 14.4067 11.9525 14.4128 11.934 14.426C11.9184 14.4356 11.9045 14.4478 11.893 14.462C11.8885 14.4677 11.8851 14.4741 11.883 14.481V14.487C11.8828 14.4897 11.8828 14.4923 11.883 14.495C11.8836 14.5008 11.8849 14.5065 11.887 14.512L11.909 14.572C11.9139 14.5806 11.9168 14.5902 11.9176 14.6001C11.9183 14.61 11.9168 14.6199 11.9131 14.6292C11.9095 14.6384 11.9038 14.6467 11.8965 14.6534C11.8892 14.6601 11.8805 14.6651 11.871 14.668C11.8057 14.6944 11.7376 14.7128 11.668 14.723C11.628 14.728 11.593 14.713 11.603 14.666C11.6173 14.5846 11.6408 14.5051 11.673 14.429C11.6773 14.4153 11.6846 14.4028 11.6945 14.3924C11.7044 14.382 11.7165 14.374 11.73 14.369C11.7961 14.3312 11.8564 14.284 11.909 14.229C11.9548 14.1853 12.0147 14.1594 12.078 14.156C12.1729 14.1477 12.2636 14.1131 12.34 14.056C12.4201 14.0004 12.4953 13.9382 12.565 13.87C12.616 13.8039 12.6432 13.7225 12.6422 13.639C12.6411 13.5554 12.6117 13.4747 12.559 13.41L12.539 13.375C12.52 13.345 12.509 13.302 12.493 13.271C12.472 13.2399 12.4587 13.2042 12.454 13.167C12.454 13.099 12.481 13.034 12.485 12.966C12.4855 12.9606 12.4842 12.9553 12.4813 12.9507C12.4784 12.9462 12.4741 12.9428 12.469 12.941C12.425 12.9245 12.3788 12.9144 12.332 12.911C12.146 12.9326 11.9583 12.9346 11.772 12.917C11.6336 12.8771 11.5021 12.8164 11.382 12.737C11.329 12.704 11.297 12.667 11.243 12.636C11.229 12.628 11.228 12.631 11.215 12.642C11.0823 12.7382 10.9191 12.7827 10.756 12.767H10.754C10.6539 12.7498 10.5556 12.7241 10.46 12.69C10.387 12.663 10.27 12.616 10.2 12.675C10.171 12.7 10.178 12.735 10.178 12.768C10.1872 12.8697 10.1838 12.9721 10.168 13.073C10.1661 13.0782 10.1654 13.0838 10.1659 13.0893C10.1664 13.0949 10.1682 13.1002 10.171 13.105C10.1728 13.1072 10.1748 13.1092 10.177 13.111C10.1879 13.1195 10.2 13.1262 10.213 13.131L10.223 13.135C10.251 13.145 10.256 13.158 10.273 13.193C10.2817 13.2126 10.2871 13.2336 10.289 13.255C10.2921 13.2757 10.291 13.2967 10.286 13.317C10.2835 13.3301 10.2805 13.3431 10.277 13.356C10.2645 13.4006 10.2673 13.4482 10.285 13.491C10.2933 13.5125 10.308 13.5309 10.327 13.544C10.3302 13.5456 10.3335 13.5469 10.337 13.548C10.3402 13.5493 10.3436 13.5503 10.347 13.551C10.3503 13.5512 10.3536 13.5512 10.357 13.551H10.367C10.374 13.5493 10.3807 13.5466 10.387 13.543L10.391 13.541C10.4007 13.5327 10.4132 13.5284 10.426 13.529C10.4294 13.5296 10.4328 13.5306 10.436 13.532C10.4531 13.5357 10.4686 13.545 10.48 13.5583C10.4914 13.5717 10.4981 13.5885 10.499 13.606C10.5013 13.6823 10.4855 13.758 10.453 13.827C10.4499 13.8341 10.4455 13.8405 10.44 13.8458C10.4345 13.8511 10.4279 13.8553 10.4208 13.8581C10.4136 13.8609 10.4059 13.8622 10.3982 13.8621C10.3906 13.8619 10.383 13.8601 10.376 13.857L10.358 13.85C10.3037 13.8211 10.2561 13.7813 10.218 13.733C10.1897 13.7021 10.1725 13.6627 10.169 13.621C10.1702 13.5911 10.1602 13.5619 10.141 13.539C10.1315 13.5316 10.1206 13.5261 10.109 13.523C10.0816 13.5149 10.0572 13.4989 10.039 13.477C10.0149 13.4465 9.99785 13.411 9.98887 13.3732C9.97989 13.3354 9.97924 13.2961 9.98697 13.258C10.018 13.0438 10.0023 12.8255 9.94097 12.618C9.92811 12.583 9.92882 12.5445 9.94297 12.51L9.95897 12.467C9.96099 12.4615 9.96333 12.4562 9.96597 12.451C9.97007 12.4428 9.97598 12.4357 9.98326 12.4301C9.99054 12.4246 9.999 12.4208 10.008 12.419C10.0175 12.4172 10.0272 12.4162 10.037 12.416C10.1896 12.4155 10.3414 12.3919 10.487 12.346C10.5067 12.3384 10.5278 12.335 10.549 12.336C10.5733 12.3377 10.5976 12.3383 10.622 12.338C10.652 12.338 10.682 12.311 10.646 12.288C10.6159 12.261 10.5879 12.232 10.562 12.201C10.557 12.1921 10.5492 12.1851 10.5397 12.1811C10.5303 12.1771 10.5199 12.1764 10.51 12.179C10.5065 12.1804 10.5032 12.1821 10.5 12.184L10.491 12.189C10.4798 12.1989 10.4665 12.206 10.4521 12.21C10.4377 12.2139 10.4225 12.2145 10.4079 12.2117C10.3932 12.2089 10.3794 12.2028 10.3674 12.1938C10.3555 12.1849 10.3458 12.1733 10.339 12.16C10.3011 12.0969 10.2718 12.0289 10.252 11.958C10.2351 11.8711 10.1978 11.7895 10.143 11.72C10.1179 11.6962 10.0879 11.6781 10.055 11.6673C10.0222 11.6564 9.98733 11.6529 9.95297 11.657C9.89852 11.6715 9.85187 11.7066 9.82297 11.755L9.75997 11.843C9.74399 11.8623 9.73331 11.8854 9.72897 11.91C9.72857 11.9153 9.72857 11.9207 9.72897 11.926C9.73037 11.9369 9.73305 11.9477 9.73697 11.958C9.74791 11.9844 9.75002 12.0137 9.74299 12.0415C9.73596 12.0692 9.72018 12.0939 9.69797 12.112L9.60397 12.187C9.59525 12.1945 9.58811 12.2037 9.58296 12.214C9.57781 12.2243 9.57475 12.2355 9.57397 12.247C9.57114 12.2672 9.56713 12.2872 9.56197 12.307C9.55836 12.3217 9.55734 12.3369 9.55897 12.352C9.55936 12.356 9.56003 12.3601 9.56097 12.364C9.56677 12.3803 9.57763 12.3943 9.59197 12.404C9.59653 12.4078 9.60087 12.4118 9.60497 12.416C9.60975 12.4211 9.61379 12.4268 9.61697 12.433C9.62268 12.4444 9.6246 12.4574 9.62244 12.47C9.62028 12.4826 9.61416 12.4941 9.60497 12.503C9.59749 12.5106 9.58947 12.5176 9.58097 12.524C9.52323 12.569 9.45922 12.6054 9.39097 12.632C9.38262 12.6352 9.37387 12.6372 9.36497 12.638C9.32697 12.641 9.31497 12.612 9.31297 12.578C9.30997 12.534 9.30997 12.489 9.30997 12.444C9.31139 12.3929 9.33169 12.3441 9.36697 12.307C9.4156 12.2422 9.44096 12.163 9.43897 12.082C9.43645 12.0353 9.45063 11.9892 9.47897 11.952C9.50311 11.9256 9.5224 11.8951 9.53597 11.862C9.5456 11.8382 9.55875 11.8159 9.57497 11.796C9.67644 11.6739 9.77029 11.5457 9.85597 11.412C9.90997 11.326 10.011 11.22 10.093 11.339C10.1143 11.371 10.1406 11.3994 10.171 11.423C10.2537 11.4831 10.3402 11.5379 10.43 11.587C10.524 11.64 10.539 11.545 10.555 11.466V11.463C10.5629 11.4306 10.5757 11.3996 10.593 11.371C10.6496 11.2804 10.7174 11.1974 10.795 11.124C10.838 11.086 10.9 11.048 10.945 11.011C10.963 10.995 10.968 10.993 10.975 10.971C10.984 10.949 10.999 10.921 11.009 10.893C11.019 10.866 11.024 10.838 11.033 10.817C11.0527 10.7868 11.0675 10.7538 11.077 10.719V10.716C11.0772 10.7143 11.0772 10.7127 11.077 10.711V10.704L11.074 10.697C11.0698 10.6869 11.0624 10.6785 11.053 10.673C11.0223 10.6544 10.9868 10.6453 10.951 10.647H10.948C10.8971 10.6474 10.8468 10.658 10.8 10.678C10.7759 10.6887 10.7566 10.7079 10.746 10.732C10.7356 10.7552 10.7214 10.7765 10.704 10.795C10.6868 10.8117 10.6641 10.8216 10.6401 10.8227C10.6162 10.8238 10.5926 10.8161 10.574 10.801C10.55 10.785 10.56 10.758 10.574 10.738C10.5869 10.7222 10.5986 10.7055 10.609 10.688C10.6132 10.6804 10.6149 10.6717 10.614 10.663V10.659L10.612 10.654C10.6106 10.6518 10.6089 10.6498 10.607 10.648C10.6007 10.643 10.5933 10.6398 10.5854 10.6385C10.5775 10.6373 10.5694 10.6382 10.562 10.641C10.5339 10.6488 10.5062 10.6578 10.479 10.668C10.4699 10.6729 10.4598 10.6756 10.4495 10.6758C10.4391 10.676 10.4289 10.6737 10.4197 10.6691C10.4105 10.6644 10.4025 10.6577 10.3964 10.6493C10.3904 10.6409 10.3865 10.6312 10.385 10.621C10.3811 10.6029 10.38 10.5844 10.382 10.566C10.3826 10.5545 10.3868 10.5435 10.3939 10.5346C10.4011 10.5256 10.4109 10.5191 10.422 10.516C10.442 10.51 10.472 10.499 10.468 10.474C10.4669 10.4664 10.4669 10.4586 10.468 10.451C10.4698 10.4421 10.4739 10.4338 10.48 10.427C10.4888 10.4173 10.4989 10.4089 10.51 10.402C10.6206 10.3295 10.7274 10.2514 10.83 10.168C10.8377 10.159 10.8484 10.1531 10.8601 10.1512C10.8719 10.1494 10.8839 10.1518 10.894 10.158L10.904 10.164C10.9504 10.1882 11.0039 10.1953 11.055 10.184C11.064 10.1836 11.0727 10.1805 11.08 10.1752C11.0873 10.1698 11.0928 10.1625 11.096 10.154C11.0961 10.1523 11.0961 10.1507 11.096 10.149V10.144L11.094 10.138L11.091 10.134C11.0816 10.1237 11.0694 10.1164 11.056 10.113L10.998 10.092C10.9798 10.0856 10.9624 10.0772 10.946 10.067C10.9359 10.0612 10.9281 10.0524 10.9235 10.0417C10.919 10.0311 10.9181 10.0192 10.921 10.008C10.944 9.895 11.068 9.894 11.162 9.903H11.166C11.2134 9.90228 11.2606 9.89488 11.306 9.881C11.366 9.86 11.412 9.814 11.469 9.787C11.526 9.76 11.586 9.73 11.645 9.707C11.663 9.701 11.678 9.705 11.694 9.698C11.7075 9.69258 11.7195 9.68401 11.729 9.673C11.7701 9.61352 11.8177 9.55884 11.871 9.51C11.9444 9.46732 12.024 9.43629 12.107 9.418C12.1166 9.41457 12.1267 9.41255 12.137 9.412H12.136ZM11.711 9.969C11.6743 9.96875 11.6382 9.97769 11.606 9.995C11.597 10 11.591 10.011 11.598 10.019C11.616 10.04 11.647 10.049 11.668 10.069C11.6823 10.0821 11.6942 10.0977 11.703 10.115C11.712 10.134 11.727 10.155 11.736 10.175C11.753 10.2152 11.7681 10.2563 11.781 10.298C11.8037 10.3661 11.8205 10.436 11.831 10.507C11.841 10.564 11.838 10.624 11.841 10.682V10.763C11.84 10.786 11.84 10.81 11.838 10.833C11.8352 10.8656 11.8339 10.8983 11.834 10.931V11.011C11.836 11.081 11.847 11.131 11.878 11.131C11.9071 11.1316 11.9359 11.125 11.962 11.112C11.9876 11.0966 12.0089 11.075 12.0237 11.0491C12.0386 11.0232 12.0466 10.9939 12.047 10.964C12.0734 10.7728 12.0724 10.5789 12.044 10.388C12.0392 10.318 12.0201 10.2497 11.9877 10.1874C11.9554 10.1251 11.9105 10.0702 11.856 10.026C11.8165 9.9901 11.7653 9.96983 11.712 9.969H11.711ZM15.671 10.13H20.848C20.831 10.955 20.814 11.73 20.798 12.393H15.668L15.672 10.531L15.671 10.13ZM15.665 12.674H20.788C20.7564 13.6665 20.5726 14.6483 20.243 15.585C19.8503 16.6833 19.3265 17.7302 18.683 18.703C18.0115 19.7049 17.198 20.604 16.268 21.372C15.9047 21.6796 15.5216 21.9629 15.121 22.22C14.4937 22.6018 13.8385 22.9358 13.161 23.219C12.937 23.315 12.743 23.405 12.565 23.466C12.372 23.531 12.207 23.591 12.091 23.622V23.507L12.094 16.212C12.1996 16.209 12.305 16.2014 12.41 16.189C12.415 16.204 12.426 16.246 12.441 16.289C12.4636 16.3307 12.4948 16.367 12.5325 16.3956C12.5703 16.4243 12.6138 16.4445 12.66 16.455C12.7159 16.4664 12.7738 16.4624 12.8277 16.4436C12.8815 16.4247 12.9293 16.3917 12.966 16.348C13.018 16.3942 13.0818 16.425 13.1504 16.4369C13.219 16.4487 13.2895 16.4411 13.354 16.415C13.4041 16.4018 13.4484 16.3723 13.4801 16.3313C13.5117 16.2902 13.5289 16.2398 13.529 16.188C13.5354 16.117 13.524 16.0455 13.496 15.98L13.46 15.914C13.7221 15.8047 13.9715 15.6672 14.204 15.504L14.224 15.498C14.597 15.404 16.096 14.867 17.015 14.855C17.5819 14.8422 18.1425 14.9765 18.642 15.245C18.8976 15.3943 19.1278 15.5834 19.324 15.805C19.33 15.814 19.337 15.833 19.361 15.837C19.3682 15.8372 19.3753 15.8352 19.3814 15.8312C19.3874 15.8273 19.3922 15.8217 19.395 15.815C19.4609 15.6514 19.4879 15.4748 19.474 15.299C19.454 15.017 19.174 14.813 19.091 14.729C19.088 14.726 19.081 14.708 19.111 14.688C19.143 14.6562 19.1782 14.6277 19.216 14.603C19.3766 14.4754 19.5731 14.4013 19.778 14.391C19.808 14.394 19.798 14.351 19.79 14.315C19.732 14.065 19.375 13.903 19 13.961C18.8753 13.9866 18.757 14.0366 18.6517 14.1081C18.5465 14.1797 18.4565 14.2714 18.387 14.378C18.38 14.389 18.345 14.405 18.331 14.391C18.2104 14.3473 18.0872 14.3115 17.962 14.284C17.917 14.274 17.941 14.24 17.943 14.234C18.0172 14.0999 18.1212 13.9846 18.247 13.897C18.3909 13.7832 18.5605 13.7063 18.741 13.673C18.763 13.673 18.763 13.643 18.757 13.633C18.7215 13.5575 18.6692 13.4911 18.6043 13.4388C18.5393 13.3865 18.4633 13.3496 18.382 13.331C18.2504 13.2887 18.1105 13.2794 17.9745 13.3038C17.8385 13.3282 17.7106 13.3856 17.602 13.471C17.3907 13.6467 17.2359 13.8808 17.157 14.144C17.143 14.164 17.139 14.18 17.121 14.176C17.022 14.156 16.776 14.169 16.754 14.154C16.739 14.147 16.742 14.124 16.745 14.109C16.7868 13.9661 16.863 13.8356 16.967 13.729C17.0607 13.603 17.1863 13.5042 17.331 13.443C17.3396 13.439 17.3471 13.4329 17.3527 13.4251C17.3582 13.4174 17.3617 13.4083 17.3627 13.3988C17.3637 13.3894 17.3622 13.3798 17.3584 13.371C17.3546 13.3623 17.3486 13.3547 17.341 13.349C17.1387 13.2442 16.9063 13.2132 16.6837 13.2612C16.4611 13.3092 16.2621 13.4332 16.121 13.612C15.9799 13.8245 15.877 14.0601 15.817 14.308C15.815 14.317 15.8 14.344 15.781 14.344L15.273 14.456L15.19 14.475L15.168 14.498C15.4773 14.0019 15.6488 13.4324 15.665 12.848V12.674ZM3.21497 12.759H8.40497V12.849C8.41454 13.6279 8.7128 14.3754 9.24197 14.947H3.55597C3.35916 14.233 3.24442 13.499 3.21397 12.759H3.21497ZM3.62997 15.202H9.49297C9.52932 15.2364 9.56667 15.2698 9.60497 15.302C10.2188 15.8174 10.9765 16.1309 11.775 16.2V17.41H4.55497C4.24455 16.8211 3.97719 16.2105 3.75497 15.583C3.71087 15.4571 3.6692 15.3305 3.62997 15.203V15.202ZM14.214 15.492L14.204 15.504H14.202L14.2 15.502C14.205 15.4987 14.21 15.4953 14.215 15.492H14.214ZM15.952 15.677C15.7713 15.6773 15.5949 15.7312 15.445 15.832C15.275 15.9247 15.138 16.068 15.053 16.242C14.9571 16.4902 14.8991 16.7515 14.881 17.017C14.8775 17.0252 14.8723 17.0325 14.8657 17.0386C14.8592 17.0446 14.8514 17.0492 14.843 17.052C14.7297 17.0743 14.6178 17.1033 14.508 17.139C14.5025 17.1385 14.4974 17.1363 14.4932 17.1327C14.4891 17.1291 14.4862 17.1243 14.485 17.119C14.4496 16.8666 14.5026 16.6098 14.635 16.392C14.6899 16.291 14.7639 16.2017 14.853 16.129C14.8595 16.1248 14.8645 16.1187 14.8674 16.1115C14.8702 16.1043 14.8707 16.0964 14.8689 16.0889C14.867 16.0814 14.8628 16.0747 14.8569 16.0697C14.851 16.0647 14.8437 16.0616 14.836 16.061C14.6133 16.0232 14.3844 16.0635 14.188 16.175C14.0654 16.2427 13.9605 16.3384 13.882 16.4543C13.8034 16.5702 13.7534 16.7031 13.736 16.842C13.7124 17.0409 13.7267 17.2424 13.778 17.436C13.778 17.442 13.784 17.463 13.762 17.467C13.686 17.504 13.48 17.612 13.407 17.647C13.402 17.649 13.388 17.652 13.385 17.641C13.3662 17.5666 13.3329 17.4966 13.2869 17.4351C13.2409 17.3737 13.1831 17.322 13.117 17.283C13.0456 17.2537 12.9686 17.2405 12.8915 17.2443C12.8144 17.2481 12.7391 17.2688 12.671 17.305C12.5788 17.3572 12.5038 17.435 12.455 17.529C12.4208 17.6079 12.4147 17.6962 12.4378 17.779C12.4609 17.8618 12.5118 17.9342 12.582 17.984C12.588 17.99 12.599 18.004 12.582 18.009C12.492 18.058 12.49 18.069 12.422 18.17C12.3877 18.2424 12.3744 18.3229 12.3836 18.4024C12.3928 18.482 12.4241 18.5574 12.474 18.62C12.5114 18.6754 12.5604 18.7221 12.6176 18.7569C12.6747 18.7917 12.7387 18.8137 12.8052 18.8215C12.8716 18.8293 12.939 18.8227 13.0026 18.802C13.0663 18.7814 13.1247 18.7473 13.174 18.702C13.178 18.699 13.192 18.707 13.199 18.722C13.2366 18.781 13.2851 18.8323 13.342 18.873C13.4114 18.9122 13.4898 18.9327 13.5695 18.9327C13.6492 18.9327 13.7275 18.9122 13.797 18.873C13.8696 18.8329 13.9285 18.7719 13.9659 18.6979C14.0034 18.6239 14.0177 18.5403 14.007 18.458C14.0055 18.3595 13.9657 18.2655 13.896 18.196C13.883 18.18 13.896 18.172 13.93 18.15C14.5343 17.8038 15.1998 17.5776 15.89 17.484C16.2472 17.429 16.6113 17.4364 16.966 17.506C17.1973 17.5589 17.4129 17.6658 17.595 17.818C17.7435 17.938 17.8795 18.0727 18.001 18.22C18.0417 18.2267 18.0835 18.2178 18.118 18.195C18.155 18.1142 18.1753 18.0268 18.1777 17.9379C18.1801 17.8491 18.1646 17.7607 18.132 17.678C18.0492 17.4553 17.9181 17.2538 17.748 17.088C17.745 17.086 17.745 17.075 17.745 17.068C17.741 17.038 17.76 17.023 17.797 16.989C17.9545 16.8417 18.1485 16.7392 18.359 16.692C18.386 16.69 18.397 16.67 18.379 16.639C18.3029 16.5002 18.1792 16.3936 18.0307 16.3388C17.8822 16.2841 17.7189 16.2848 17.571 16.341H17.57C17.3752 16.4231 17.2148 16.5701 17.116 16.757C17.11 16.768 17.094 16.807 17.079 16.795C16.989 16.787 16.837 16.763 16.748 16.755C16.707 16.753 16.723 16.716 16.724 16.71C16.7609 16.59 16.8277 16.4813 16.918 16.394C17.039 16.2546 17.1911 16.1457 17.362 16.076C17.3654 16.0756 17.3687 16.0744 17.3715 16.0724C17.3743 16.0705 17.3767 16.0678 17.3782 16.0648C17.3798 16.0617 17.3806 16.0583 17.3806 16.0548C17.3805 16.0514 17.3796 16.048 17.378 16.045C17.3213 15.9759 17.2504 15.9197 17.1702 15.8802C17.09 15.8407 17.0023 15.8188 16.913 15.816C16.7992 15.81 16.6854 15.8282 16.5791 15.8692C16.4728 15.9102 16.3763 15.9732 16.296 16.054C16.1046 16.2564 15.9861 16.5168 15.959 16.794C15.95 16.817 15.939 16.829 15.922 16.829C15.83 16.8438 15.7371 16.8522 15.644 16.854C15.629 16.85 15.63 16.834 15.63 16.818C15.6317 16.6767 15.6662 16.5377 15.731 16.412C15.8578 16.1715 16.048 15.9702 16.281 15.83C16.317 15.805 16.319 15.754 16.307 15.748C16.1946 15.7008 16.0739 15.6767 15.952 15.677V15.677ZM4.70697 17.692H11.776V19.882H6.21297C5.88795 19.5085 5.58796 19.114 5.31497 18.701C5.09996 18.3717 4.89683 18.0348 4.70597 17.691L4.70697 17.692ZM14.783 18.868C14.6872 18.8642 14.5924 18.8882 14.51 18.937C14.2852 19.0552 14.1149 19.2559 14.035 19.497C13.9882 19.685 13.9923 19.8821 14.047 20.068C14.05 20.075 14.059 20.092 14.045 20.098C13.967 20.128 13.909 20.163 13.832 20.194C13.828 20.194 13.808 20.199 13.804 20.189C13.7391 20.0727 13.7127 19.9389 13.7285 19.8067C13.7443 19.6745 13.8015 19.5507 13.892 19.453C13.909 19.438 13.919 19.418 13.884 19.406C13.7864 19.391 13.6866 19.4008 13.5938 19.4345C13.501 19.4683 13.4182 19.5248 13.353 19.599C13.278 19.6893 13.2278 19.7975 13.2073 19.913C13.1868 20.0286 13.1967 20.1474 13.236 20.258C13.2555 20.3495 13.2889 20.4375 13.335 20.519C13.338 20.524 13.365 20.54 13.349 20.547L13.199 20.662C13.196 20.665 13.185 20.67 13.18 20.662C13.1498 20.6051 13.1086 20.5547 13.0589 20.5139C13.0091 20.473 12.9517 20.4425 12.89 20.424C12.834 20.4107 12.7756 20.4119 12.7202 20.4272C12.6647 20.4426 12.6141 20.4718 12.573 20.512C12.5285 20.5558 12.4962 20.6105 12.4791 20.6705C12.4621 20.7306 12.4609 20.794 12.4757 20.8547C12.4906 20.9153 12.5208 20.9711 12.5636 21.0166C12.6065 21.062 12.6603 21.0956 12.72 21.114C12.727 21.117 12.737 21.126 12.725 21.134C12.6452 21.188 12.58 21.2608 12.535 21.346C12.5079 21.4146 12.5015 21.4896 12.5166 21.5617C12.5317 21.6339 12.5677 21.7001 12.62 21.752C12.6593 21.7865 12.7054 21.8122 12.7554 21.8276C12.8054 21.8429 12.8581 21.8475 12.91 21.841C12.9875 21.8156 13.0591 21.7748 13.1205 21.721C13.1818 21.6672 13.2316 21.6015 13.267 21.528C13.269 21.525 13.288 21.511 13.298 21.522C13.3624 21.6151 13.4549 21.6852 13.562 21.722C13.6167 21.741 13.6755 21.7451 13.7324 21.7336C13.7892 21.7222 13.8419 21.6957 13.885 21.657C13.9437 21.6109 13.9862 21.5472 14.0062 21.4752C14.0261 21.4033 14.0226 21.3268 13.996 21.257C13.9477 21.1696 13.8786 21.0955 13.795 21.041C13.782 21.031 13.792 21.006 13.818 20.986C14.223 20.6603 14.7065 20.4465 15.22 20.366C15.5705 20.3195 15.927 20.3772 16.245 20.532C16.3692 20.6049 16.4826 20.6947 16.582 20.799C16.595 20.806 16.632 20.819 16.645 20.807C16.7203 20.7378 16.766 20.6421 16.7725 20.54C16.779 20.4379 16.7459 20.3373 16.68 20.259C16.6232 20.1906 16.5531 20.1344 16.474 20.094C16.4707 20.0895 16.4683 20.0844 16.467 20.079C16.5289 19.9226 16.6331 19.7865 16.768 19.686C16.8603 19.6268 16.9593 19.5788 17.063 19.543C17.085 19.537 17.081 19.523 17.07 19.496C16.942 19.203 16.435 19.192 16.196 19.346C16.05 19.4477 15.9312 19.5837 15.85 19.742C15.845 19.752 15.838 19.782 15.825 19.773L15.612 19.709C15.608 19.709 15.608 19.685 15.61 19.681C15.6806 19.5438 15.7789 19.4227 15.8987 19.3255C16.0185 19.2282 16.1572 19.1569 16.306 19.116C16.321 19.11 16.316 19.096 16.313 19.088C16.203 18.82 15.652 18.843 15.383 19.014C15.133 19.1798 14.9564 19.4355 14.89 19.728C14.887 19.748 14.896 19.765 14.883 19.768C14.8082 19.7936 14.7312 19.812 14.653 19.823C14.6471 19.8225 14.6417 19.8199 14.6376 19.8157C14.6336 19.8114 14.6312 19.8059 14.631 19.8C14.6113 19.6655 14.6347 19.5283 14.698 19.408C14.7877 19.2585 14.8966 19.1213 15.022 19C15.0261 18.9958 15.0293 18.9907 15.0315 18.9852C15.0336 18.9797 15.0345 18.9738 15.0342 18.9678C15.0339 18.9619 15.0324 18.9561 15.0298 18.9508C15.0272 18.9455 15.0235 18.9408 15.019 18.937C14.9474 18.8942 14.8663 18.8702 14.783 18.867V18.868ZM11.777 20.164V23.581C11.679 23.549 11.563 23.507 11.435 23.464C11.257 23.404 11.062 23.313 10.838 23.217C10.1604 22.9335 9.5052 22.5992 8.87797 22.217C8.47743 21.9602 8.09426 21.6773 7.73097 21.37C7.2821 20.9972 6.85913 20.5943 6.46497 20.164H11.775H11.777Z" fill="white"/>
</g>
<defs>
<clipPath id="clip0_608_2">
<rect width="24" height="24" fill="white"/>
</clipPath>
</defs>
</svg>
